<svg xmlns="http://www.w3.org/2000/svg"><defs><style>.fill-empty{fill:none}.fill-rsb-opacity20{fill:#c3002f;opacity:.2}</style><style>.fill-empty{fill:none}.fill-rsb-opacity20{fill:#c3002f;opacity:.2}.fill-white-opacity30{fill:#fff;opacity:.3}</style><style>.fill-rsb-opacity20{fill:#c3002f;opacity:.2}.fill-empty{fill:none}</style><style>.fill-white-opacity30{fill:#fff;opacity:.3}.fill-empty{fill:none}.fill-rsb-opacity20{fill:#c3002f;opacity:.2}</style><style>.fill-rsb-opacity20{fill:#c3002f;opacity:.2}</style><style>.fill-white-opacity30{fill:#fff;opacity:.3}</style><style>.fill-rsb-opacity20{fill:#c3002f;opacity:.2}.opacity20{opacity:.2}.fill-rsb{fill:#c3002f}</style><style>.fill-white-opacity30{fill:#fff;opacity:.3}.opacity30{opacity:.3}.fill-white{fill:#fff}</style><style>.opacity20{opacity:.2}.fill-rsb{fill:#c3002f}.fill-empty-stroke10-rsb{fill:none;stroke:#00aeef;stroke-miterlimit:10;stroke-width:3px}.fill-rsb-opacity20{fill:#c3002f;opacity:.2}</style><style>.fill-white-opacity30{fill:#fff;opacity:.3}.opacity30{opacity:.3}.fill-white{fill:#fff}.fill-empty-stroke10-rsb{fill:none;stroke:#00aeef;stroke-miterlimit:10;stroke-width:3px}</style><style>.fill-rsb-opacity20{fill:#c3002f;opacity:.2}</style><style>.fill-white-opacity30{fill:#fff;opacity:.3}.fill-white-opacity20{fill:#fff;opacity:.2}</style><style>.fill-rsb-opacity20{fill:#c3002f;opacity:.2}.opacity20{opacity:.2}.fill-rsb{fill:#c3002f}</style><style>.fill-empty-opacity30{fill:#fff;opacity:.3}.opacity30{opacity:.3}.fill-white{fill:#fff}</style><style>.fill-rsb-opacity20{fill:#c3002f;opacity:.2}.fill-empty{fill:none}.fill-white{fill:#fff}</style><style>.fill-white-opacity20{fill:#fff;opacity:.2}.fill-empty{fill:none}.fill-white{fill:#fff}</style><style>.fill-rsb-opacity20{fill:#c3002f;opacity:.2}</style><style>.fill-white-opacity20{fill:#fff;opacity:.2}.fill-white-opacity30{fill:#fff;opacity:.3}</style><style>.fill-empty{fill:none}.fill-rsb-opacity20{fill:#c3002f;opacity:.2}</style><style>.fill-white-opacity30{fill:#fff;opacity:.3}</style><style>.fill-rsb-opacity20{fill:#c3002f;opacity:.2}</style><style>.fill-white-opacity30{fill:#fff;opacity:.3}</style><style>.fill-rsb-opacity20{fill:#c3002f;opacity:.2}</style><style>.fill-white-opacity20{fill:#fff;opacity:.2}</style><style>.fill-rsb-opacity20{fill:#c3002f;opacity:.2}.fill-rsb-opacity40{fill:#c3002f;opacity:.4}.fill-rsb-opacity70{fill:#c3002f;opacity:.7}</style><style>.fill-white-opacity20{fill:#fff;opacity:.2}.fill-white-opacity40{fill:#fff;opacity:.4}.fill-white-opacity70{fill:#fff;opacity:.7}</style><style>.fill-rsb-opacity20{fill:#c3002f;opacity:.2}</style><style>.fill-rsb-opacity20{fill:#c3002f;opacity:.2}.fill-white-opacity30{fill:#fff;opacity:.3}</style><style>.fill-rsb-opacity20{fill:#c3002f;opacity:.2}</style><style>.fill-white-opacity20{fill:#fff;opacity:.2}</style><style>.fill-rsb-opacity40{fill:#c3002f;opacity:.4}.fill-rsb-opacity70{fill:#c3002f;opacity:.7}.fill-rsb-opacity20{fill:#c3002f;opacity:.2}.fill-rsb{fill:#c3002f}</style><style>.fill-white-opacity40{fill:#fff;opacity:.4}.fill-white-opacity70{fill:#fff;opacity:.7}.fill-white-opacity20{fill:#fff;opacity:.2}.fill-white{fill:#fff}</style><style>.fill-rsb-opacity20{fill:#c3002f;opacity:.2}.fill-rsb-opacity40{fill:#c3002f;opacity:.4}.fill-rsb-opacity70{fill:#c3002f;opacity:.7}.fill-empty{fill:none}</style><style>.fill-white-opacity20{fill:#fff;opacity:.2}.fill-white-opacity40{fill:#fff;opacity:.4}.fill-white-opacity70{fill:#fff;opacity:.7}.fill-empty{fill:none}</style><style>.fill-rsb-opacity40{fill:#c3002f;opacity:.4}.fill-rsb-opacity70{fill:#c3002f;opacity:.7}.fill-rsb-opacity20{fill:#c3002f;opacity:.2}</style><style>.fill-white-opacity40{fill:#fff;opacity:.4}.fill-white-opacity70{fill:#fff;opacity:.7}.fill-white-opacity20{fill:#fff;opacity:.2}</style><style>.fill-rsb-opacity20{fill:#c3002f;opacity:.2}.fill-rsb-opacity40{fill:#c3002f;opacity:.4}.fill-rsb-opacity70{fill:#c3002f;opacity:.7}</style><style>.fill-white-opacity20{fill:#fff;opacity:.2}.fill-white-opacity40{fill:#fff;opacity:.4}.fill-white-opacity70{fill:#fff;opacity:.7}</style><style>.fill-rsb-opacity40{fill:#c3002f;opacity:.4}.fill-rsb-opacity70{fill:#c3002f;opacity:.7}.fill-rsb-opacity60{fill:#c3002f;opacity:.6}.fill-rsb-opacity20{fill:#c3002f;opacity:.2}</style><style>.fill-white-opacity40{fill:#fff;opacity:.4}.fill-white-opacity70{fill:#fff;opacity:.7}.fill-white-opacity60{fill:#fff;opacity:.6}.fill-white-opacity20{fill:#fff;opacity:.2}.fill-rsb-opacity70{fill:#c3002f;opacity:.7}</style><style>.fill-rsb-opacity10{fill:#c3002f;opacity:.1}.fill-rsb-opacity70{fill:#c3002f;opacity:.7}.fill-rsb-opacity50{fill:#c3002f;opacity:.5}</style><style>.fill-white-opacity10{fill:#fff;opacity:.1}.fill-white-opacity70{fill:#fff;opacity:.7}.fill-white-opacity50{fill:#fff;opacity:.5}</style></defs><symbol id="icon-01-online-class__colored--rsb" viewBox="0 0 78.67 49.17"><title>icon-01-online-class__colored--rsb</title><g id="Layer_2" data-name="Layer 2"><g id="ON_WHITE_BG" data-name="ON WHITE BG"><g id="icon-01-online-class__colored--rsb"><path class="fill-empty" d="M46.54 42.61h-4.26l2.23 2.23a3 3 0 0 0 2.03-2.23z"/><path class="fill-empty" d="M34.42 44.89h9.83a3 3 0 0 0 2.29-2.28H31.93c0 .91 1.58 2.28 2.49 2.28z"/><path class="fill-empty" d="M34.42 44.89h9.83a3 3 0 0 0 2.29-2.28H31.93c0 .91 1.58 2.28 2.49 2.28z"/><path class="fill-rsb-opacity20" d="M31.52 30.78l1.71-1.39-.63-4.75-2.52 2.53-.3 2.22 1.74 1.39z"/><path class="fill-rsb-opacity20" d="M72.11 42.61V3.93A3.93 3.93 0 0 0 68.18 0H57.25L37.73 19.52a4.13 4.13 0 0 1 .79.66L46 27.7a3 3 0 0 1 .31.38h6.46a2.46 2.46 0 0 1 1.56.57l7.06-4.48a.8.8 0 1 1 .86 1.36L55.22 30a2.45 2.45 0 0 1 .07.55A2.49 2.49 0 0 1 52.81 33H44a2.45 2.45 0 0 1-1-.21 3 3 0 0 1-1.37-.78l-2.12-2.12v5.81H23.44v-1.9L8.08 49.17h66.65a3.93 3.93 0 0 0 3.93-3.93v-2.63zm-27.86 2.28h-9.83c-.91 0-2.49-1.37-2.49-2.28h14.61a3 3 0 0 1-2.29 2.28z"/><path class="fill-rsb-opacity20" d="M72.11 42.61V3.93A3.93 3.93 0 0 0 68.18 0H10.49a3.93 3.93 0 0 0-3.93 3.93v3l16.88 16.84v-.91a4 4 0 0 1 4-4h1.78L31 20.57l-1.18 8.83 1.74 1.38 1.71-1.38-1.16-8.8 1.7-1.75h1.78a4 4 0 0 1 3 1.34L46 27.7a3 3 0 0 1 .31.38h6.46a2.46 2.46 0 0 1 1.56.57l7.06-4.48a.8.8 0 1 1 .86 1.36L55.22 30a2.45 2.45 0 0 1 .07.55A2.49 2.49 0 0 1 52.81 33H44a2.45 2.45 0 0 1-1-.21 3 3 0 0 1-1.37-.78l-2.12-2.12v5.81h-4.14l6.91 6.91h4.26a3 3 0 0 1-2 2.23l4.32 4.32h25.9a3.93 3.93 0 0 0 3.93-3.93v-2.62zM31.5 17.35a5.26 5.26 0 1 1 5.26-5.26 5.26 5.26 0 0 1-5.26 5.26z"/><path class="fill-rsb-opacity20" d="M72.11 42.61V3.93A3.93 3.93 0 0 0 68.18 0H10.49a3.93 3.93 0 0 0-3.93 3.93v38.68H0v2.62a3.93 3.93 0 0 0 3.93 3.93h70.8a3.93 3.93 0 0 0 3.93-3.93v-2.62zm-27.86 2.28h-9.83c-.91 0-2.49-1.37-2.49-2.28h14.61a3 3 0 0 1-2.29 2.28zm-7.49-32.8a5.26 5.26 0 1 1-5.26-5.27 5.26 5.26 0 0 1 5.26 5.26zm2.8 23.62H23.44V22.86a4 4 0 0 1 4-4h1.78L31 20.57l-1.18 8.83 1.74 1.38 1.71-1.38-1.16-8.8 1.7-1.75h1.78a4 4 0 0 1 3 1.34L46 27.7a3 3 0 0 1 .31.38h6.46a2.46 2.46 0 0 1 1.56.57l7.06-4.48a.8.8 0 1 1 .86 1.36L55.22 30a2.45 2.45 0 0 1 .07.55A2.49 2.49 0 0 1 52.81 33H44a2.45 2.45 0 0 1-1-.21 3 3 0 0 1-1.37-.78l-2.12-2.12z"/></g></g></g></symbol><symbol id="icon-01-online-class__white--rsb" viewBox="0 0 78.67 49.17"><title>icon-01-online-class__white--rsb</title><g id="Layer_2" data-name="Layer 2"><g id="ON_MEDIUM_BG" data-name="ON MEDIUM BG"><g id="icon-01-online-class__white--rsb"><path class="fill-empty" d="M46.54 42.61h-4.26l2.23 2.23a3 3 0 0 0 2.03-2.23z"/><path class="fill-empty" d="M34.42 44.89h9.83a3 3 0 0 0 2.29-2.28H31.93c0 .91 1.58 2.28 2.49 2.28z"/><path class="fill-empty" d="M34.42 44.89h9.83a3 3 0 0 0 2.29-2.28H31.93c0 .91 1.58 2.28 2.49 2.28z"/><path class="fill-rsb-opacity20" d="M31.52 30.78l1.71-1.39-.63-4.75-2.52 2.53-.3 2.22 1.74 1.39z"/><path class="fill-white-opacity30" d="M72.11 42.61V3.93A3.93 3.93 0 0 0 68.18 0H57.25L37.73 19.52a4.13 4.13 0 0 1 .79.66L46 27.7a3 3 0 0 1 .31.38h6.46a2.46 2.46 0 0 1 1.56.57l7.06-4.48a.8.8 0 1 1 .86 1.36L55.22 30a2.45 2.45 0 0 1 .07.55A2.49 2.49 0 0 1 52.81 33H44a2.45 2.45 0 0 1-1-.21 3 3 0 0 1-1.37-.78l-2.12-2.12v5.81H23.44v-1.9L8.08 49.17h66.65a3.93 3.93 0 0 0 3.93-3.93v-2.63zm-27.86 2.28h-9.83c-.91 0-2.49-1.37-2.49-2.28h14.61a3 3 0 0 1-2.29 2.28z"/><path class="fill-white-opacity30" d="M72.11 42.61V3.93A3.93 3.93 0 0 0 68.18 0H10.49a3.93 3.93 0 0 0-3.93 3.93v3l16.88 16.84v-.91a4 4 0 0 1 4-4h1.78L31 20.57l-1.18 8.83 1.74 1.38 1.71-1.38-1.16-8.8 1.7-1.75h1.78a4 4 0 0 1 3 1.34L46 27.7a3 3 0 0 1 .31.38h6.46a2.46 2.46 0 0 1 1.56.57l7.06-4.48a.8.8 0 1 1 .86 1.36L55.22 30a2.45 2.45 0 0 1 .07.55A2.49 2.49 0 0 1 52.81 33H44a2.45 2.45 0 0 1-1-.21 3 3 0 0 1-1.37-.78l-2.12-2.12v5.81h-4.14l6.91 6.91h4.26a3 3 0 0 1-2 2.23l4.32 4.32h25.9a3.93 3.93 0 0 0 3.93-3.93v-2.62zM31.5 17.35a5.26 5.26 0 1 1 5.26-5.26 5.26 5.26 0 0 1-5.26 5.26z"/><path class="fill-white-opacity30" d="M72.11 42.61V3.93A3.93 3.93 0 0 0 68.18 0H10.49a3.93 3.93 0 0 0-3.93 3.93v38.68H0v2.62a3.93 3.93 0 0 0 3.93 3.93h70.8a3.93 3.93 0 0 0 3.93-3.93v-2.62zm-27.86 2.28h-9.83c-.91 0-2.49-1.37-2.49-2.28h14.61a3 3 0 0 1-2.29 2.28zm-7.49-32.8a5.26 5.26 0 1 1-5.26-5.27 5.26 5.26 0 0 1 5.26 5.26zm2.8 23.62H23.44V22.86a4 4 0 0 1 4-4h1.78L31 20.57l-1.18 8.83 1.74 1.38 1.71-1.38-1.16-8.8 1.7-1.75h1.78a4 4 0 0 1 3 1.34L46 27.7a3 3 0 0 1 .31.38h6.46a2.46 2.46 0 0 1 1.56.57l7.06-4.48a.8.8 0 1 1 .86 1.36L55.22 30a2.45 2.45 0 0 1 .07.55A2.49 2.49 0 0 1 52.81 33H44a2.45 2.45 0 0 1-1-.21 3 3 0 0 1-1.37-.78l-2.12-2.12z"/></g></g></g></symbol><symbol id="icon-02-360-support__colored--rsb" viewBox="0 0 53.03 49.24"><title>icon-02-360-support__colored--rsb</title><g id="Layer_2" data-name="Layer 2"><g id="ON_WHITE_BG" data-name="ON WHITE BG"><g id="icon-02-360-support__colored--rsb"><path class="fill-rsb-opacity20" d="M51.91 20.69L49 21.1a24.62 24.62 0 1 0-5.54 19.38l-12.81-9.73a8.6 8.6 0 1 1 2.47-7.41l-3.12.43c-1.09.15-1.26.82-.38 1.48l11.55 8.7a2 2 0 0 0 2.8-.39L52.69 22c.66-.87.31-1.47-.78-1.31z"/><path class="fill-empty" d="M24.62 16a8.6 8.6 0 0 0-4.39 16L32 20.23A8.57 8.57 0 0 0 24.62 16z"/><path class="fill-rsb-opacity20" d="M16 24.62a8.59 8.59 0 0 1 16-4.38L43.45 8.79A24.61 24.61 0 1 0 8.78 43.46L20.23 32A8.59 8.59 0 0 1 16 24.62zm14.26 23.96H19a24.6 24.6 0 0 0 11.27 0z"/><path class="fill-rsb-opacity20" d="M51.91 20.69L49 21.1A24.62 24.62 0 0 0 .5 19.67l29.06 29.06a24.6 24.6 0 0 0 13.87-8.25l-12.78-9.73a8.6 8.6 0 1 1 2.47-7.41l-3.12.43c-1.09.15-1.26.82-.38 1.48l11.55 8.7a2 2 0 0 0 2.8-.39L52.69 22c.66-.87.31-1.47-.78-1.31z"/></g></g></g></symbol><symbol id="icon-02-360-support__white--rsb" viewBox="0 0 53.03 49.24"><title>icon-02-360-support__white--rsb</title><g id="Layer_2" data-name="Layer 2"><g id="ON_MEDIUM_BG" data-name="ON MEDIUM BG"><g id="icon-02-360-support__white--rsb"><path class="fill-white-opacity30" d="M51.91 20.69L49 21.1a24.62 24.62 0 1 0-5.54 19.38l-12.81-9.73a8.6 8.6 0 1 1 2.47-7.41l-3.12.43c-1.09.15-1.26.82-.38 1.48l11.55 8.7a2 2 0 0 0 2.8-.39L52.69 22c.66-.87.31-1.47-.78-1.31z"/><path class="fill-empty" d="M24.62 16a8.6 8.6 0 0 0-4.39 16L32 20.23A8.57 8.57 0 0 0 24.62 16z"/><path class="fill-white-opacity30" d="M16 24.62a8.59 8.59 0 0 1 16-4.38L43.45 8.79A24.61 24.61 0 1 0 8.78 43.46L20.23 32A8.59 8.59 0 0 1 16 24.62z"/><path class="fill-rsb-opacity20" d="M30.26 48.58H19a24.6 24.6 0 0 0 11.27 0z"/><path class="fill-white-opacity30" d="M51.91 20.69L49 21.1A24.62 24.62 0 0 0 .5 19.67l29.06 29.06a24.6 24.6 0 0 0 13.87-8.25l-12.78-9.73a8.6 8.6 0 1 1 2.47-7.41l-3.12.43c-1.09.15-1.26.82-.38 1.48l11.55 8.7a2 2 0 0 0 2.8-.39L52.69 22c.66-.87.31-1.47-.78-1.31z"/></g></g></g></symbol><symbol id="icon-03-accreditation__colored--rsb" viewBox="0 0 70.96 48.88"><title>icon-03-accreditation__colored--rsb</title><g id="Layer_2" data-name="Layer 2"><g id="ON_WHITE_BG" data-name="ON WHITE BG"><g id="icon-03-accreditation__colored--rsb"><path class="fill-rsb-opacity20" d="M71 0v48.88H53.57L44.69 40a13.87 13.87 0 0 0 1.51-1.17c.59-.5 1.49-1.26 1.89-1.26a1 1 0 1 0 0-2c-1.14 0-2.18.88-3.19 1.74a10.73 10.73 0 0 1-1.48 1.12v-.2a2.54 2.54 0 0 0-.3-2.12 1.56 1.56 0 0 0-1.23-.53 2.84 2.84 0 0 0-1.31.36l-5.1-5.1H51.8a1 1 0 0 0 0-2H33.53l-4.39-4.39h27.27a1 1 0 0 0 0-2H27.14L20.2 15.5a21.61 21.61 0 0 1 30.52 0 1.5 1.5 0 0 0 2.12-2.12 24.61 24.61 0 0 0-34.76 0L4.69 0zm-5.6 33.61a4.46 4.46 0 1 0-7 3.69v5.12l2.64-2.64 2.38 2.38V37.3a4.46 4.46 0 0 0 1.98-3.69z"/><path class="fill-rsb-opacity20" d="M33.16 0l-8.87 8.87a24.62 24.62 0 0 1 28.57 4.49 1.5 1.5 0 1 1-2.12 2.12 21.61 21.61 0 0 0-30.52 0 1.5 1.5 0 0 1-2.12 0 1.43 1.43 0 0 1-.17-.25L0 33.16v15.72h71V0zM48.1 37.57c-.4 0-1.3.76-1.89 1.26-1 .85-2.05 1.74-3.19 1.74a1.56 1.56 0 0 1-1.24-.57 2.54 2.54 0 0 1-.3-2.12v-.2A10.83 10.83 0 0 0 40 38.84c-1 .85-2 1.74-3.18 1.74a1.55 1.55 0 0 1-1.19-.58 2.54 2.54 0 0 1-.3-2.12v-.2a10.81 10.81 0 0 0-1.47 1.11c-1 .85-2 1.74-3.18 1.74a1.55 1.55 0 0 1-1.21-.53 2.54 2.54 0 0 1-.29-2.13v-.2a10.9 10.9 0 0 0-1.47 1.11c-1 .85-2 1.74-3.18 1.74a1 1 0 1 1 0-2c.4 0 1.3-.76 1.89-1.26 1-.85 2-1.74 3.18-1.74a1.55 1.55 0 0 1 1.23.53 2.54 2.54 0 0 1 .29 2.13v.2a10.86 10.86 0 0 0 1.47-1.11c1-.85 2-1.74 3.18-1.74a1.55 1.55 0 0 1 1.23.57 2.54 2.54 0 0 1 .3 2.13v.2a10.85 10.85 0 0 0 1.47-1.11c1-.85 2-1.74 3.18-1.74a1.56 1.56 0 0 1 1.23.53 2.54 2.54 0 0 1 .3 2.12v.2a10.73 10.73 0 0 0 1.48-1.12c1-.85 2-1.74 3.19-1.74a1 1 0 1 1 0 2zm3.7-6.74H18.1a1 1 0 0 1 0-2h33.7a1 1 0 0 1 0 2zm4.61-6.39H13.48a1 1 0 0 1 0-2h42.93a1 1 0 0 1 0 2zm7 12.85v4.86l-2.38-2.38-2.64 2.64V37.3a4.46 4.46 0 1 1 5 0z"/><path class="fill-rsb-opacity20" d="M0 0v48.88h71V0zm18.1 13.37a24.61 24.61 0 0 1 34.76 0 1.5 1.5 0 1 1-2.12 2.12 21.61 21.61 0 0 0-30.52 0 1.5 1.5 0 0 1-2.12-2.12zm30 24.21c-.4 0-1.3.76-1.89 1.26-1 .85-2.05 1.74-3.19 1.74a1.56 1.56 0 0 1-1.24-.58 2.54 2.54 0 0 1-.3-2.12v-.2A10.83 10.83 0 0 0 40 38.84c-1 .85-2 1.74-3.18 1.74a1.55 1.55 0 0 1-1.19-.58 2.54 2.54 0 0 1-.3-2.12v-.2a10.81 10.81 0 0 0-1.47 1.11c-1 .85-2 1.74-3.18 1.74a1.55 1.55 0 0 1-1.21-.53 2.54 2.54 0 0 1-.29-2.13v-.2a10.9 10.9 0 0 0-1.47 1.11c-1 .85-2 1.74-3.18 1.74a1 1 0 1 1 0-2c.4 0 1.3-.76 1.89-1.26 1-.85 2-1.74 3.18-1.74a1.55 1.55 0 0 1 1.23.53 2.54 2.54 0 0 1 .29 2.13v.2a10.86 10.86 0 0 0 1.47-1.11c1-.85 2-1.74 3.18-1.74a1.55 1.55 0 0 1 1.23.57 2.54 2.54 0 0 1 .3 2.13v.2a10.85 10.85 0 0 0 1.47-1.11c1-.85 2-1.74 3.18-1.74a1.56 1.56 0 0 1 1.23.53 2.54 2.54 0 0 1 .3 2.12v.2a10.73 10.73 0 0 0 1.48-1.12c1-.85 2-1.74 3.19-1.74a1 1 0 1 1 0 2zm3.7-6.74H18.1a1 1 0 0 1 0-2h33.7a1 1 0 0 1 0 2zm4.61-6.39H13.48a1 1 0 0 1 0-2h42.93a1 1 0 0 1 0 2zm7 12.85v4.86l-2.38-2.38-2.64 2.64V37.3a4.46 4.46 0 1 1 5 0z"/></g></g></g></symbol><symbol id="icon-03-accreditation__white--rsb" viewBox="0 0 70.96 48.88"><title>icon-03-accreditation__white--rsb</title><g id="Layer_2" data-name="Layer 2"><g id="ON_MEDIUM_BG" data-name="ON MEDIUM BG"><g id="icon-03-accreditation__white--rsb"><path class="fill-white-opacity30" d="M71 0v48.88H53.57L44.69 40a13.87 13.87 0 0 0 1.51-1.17c.59-.5 1.49-1.26 1.89-1.26a1 1 0 1 0 0-2c-1.14 0-2.18.88-3.19 1.74a10.73 10.73 0 0 1-1.48 1.12v-.2a2.54 2.54 0 0 0-.3-2.12 1.56 1.56 0 0 0-1.23-.53 2.84 2.84 0 0 0-1.31.36l-5.1-5.1H51.8a1 1 0 0 0 0-2H33.53l-4.39-4.39h27.27a1 1 0 0 0 0-2H27.14L20.2 15.5a21.61 21.61 0 0 1 30.52 0 1.5 1.5 0 0 0 2.12-2.12 24.61 24.61 0 0 0-34.76 0L4.69 0zm-5.6 33.61a4.46 4.46 0 1 0-7 3.69v5.12l2.64-2.64 2.38 2.38V37.3a4.46 4.46 0 0 0 1.98-3.69z"/><path class="fill-white-opacity30" d="M33.16 0l-8.87 8.87a24.62 24.62 0 0 1 28.57 4.49 1.5 1.5 0 1 1-2.12 2.12 21.61 21.61 0 0 0-30.52 0 1.5 1.5 0 0 1-2.12 0 1.43 1.43 0 0 1-.17-.25L0 33.16v15.72h71V0zM48.1 37.57c-.4 0-1.3.76-1.89 1.26-1 .85-2.05 1.74-3.19 1.74a1.56 1.56 0 0 1-1.24-.57 2.54 2.54 0 0 1-.3-2.12v-.2A10.83 10.83 0 0 0 40 38.84c-1 .85-2 1.74-3.18 1.74a1.55 1.55 0 0 1-1.19-.58 2.54 2.54 0 0 1-.3-2.12v-.2a10.81 10.81 0 0 0-1.47 1.11c-1 .85-2 1.74-3.18 1.74a1.55 1.55 0 0 1-1.21-.53 2.54 2.54 0 0 1-.29-2.13v-.2a10.9 10.9 0 0 0-1.47 1.11c-1 .85-2 1.74-3.18 1.74a1 1 0 1 1 0-2c.4 0 1.3-.76 1.89-1.26 1-.85 2-1.74 3.18-1.74a1.55 1.55 0 0 1 1.23.53 2.54 2.54 0 0 1 .29 2.13v.2a10.86 10.86 0 0 0 1.47-1.11c1-.85 2-1.74 3.18-1.74a1.55 1.55 0 0 1 1.23.57 2.54 2.54 0 0 1 .3 2.13v.2a10.85 10.85 0 0 0 1.47-1.11c1-.85 2-1.74 3.18-1.74a1.56 1.56 0 0 1 1.23.53 2.54 2.54 0 0 1 .3 2.12v.2a10.73 10.73 0 0 0 1.48-1.12c1-.85 2-1.74 3.19-1.74a1 1 0 1 1 0 2zm3.7-6.74H18.1a1 1 0 0 1 0-2h33.7a1 1 0 0 1 0 2zm4.61-6.39H13.48a1 1 0 0 1 0-2h42.93a1 1 0 0 1 0 2zm7 12.85v4.86l-2.38-2.38-2.64 2.64V37.3a4.46 4.46 0 1 1 5 0z"/><path class="fill-white-opacity30" d="M0 0v48.88h71V0zm18.1 13.37a24.61 24.61 0 0 1 34.76 0 1.5 1.5 0 1 1-2.12 2.12 21.61 21.61 0 0 0-30.52 0 1.5 1.5 0 0 1-2.12-2.12zm30 24.21c-.4 0-1.3.76-1.89 1.26-1 .85-2.05 1.74-3.19 1.74a1.56 1.56 0 0 1-1.24-.58 2.54 2.54 0 0 1-.3-2.12v-.2A10.83 10.83 0 0 0 40 38.84c-1 .85-2 1.74-3.18 1.74a1.55 1.55 0 0 1-1.19-.58 2.54 2.54 0 0 1-.3-2.12v-.2a10.81 10.81 0 0 0-1.47 1.11c-1 .85-2 1.74-3.18 1.74a1.55 1.55 0 0 1-1.21-.53 2.54 2.54 0 0 1-.29-2.13v-.2a10.9 10.9 0 0 0-1.47 1.11c-1 .85-2 1.74-3.18 1.74a1 1 0 1 1 0-2c.4 0 1.3-.76 1.89-1.26 1-.85 2-1.74 3.18-1.74a1.55 1.55 0 0 1 1.23.53 2.54 2.54 0 0 1 .29 2.13v.2a10.86 10.86 0 0 0 1.47-1.11c1-.85 2-1.74 3.18-1.74a1.55 1.55 0 0 1 1.23.57 2.54 2.54 0 0 1 .3 2.13v.2a10.85 10.85 0 0 0 1.47-1.11c1-.85 2-1.74 3.18-1.74a1.56 1.56 0 0 1 1.23.53 2.54 2.54 0 0 1 .3 2.12v.2a10.73 10.73 0 0 0 1.48-1.12c1-.85 2-1.74 3.19-1.74a1 1 0 1 1 0 2zm3.7-6.74H18.1a1 1 0 0 1 0-2h33.7a1 1 0 0 1 0 2zm4.61-6.39H13.48a1 1 0 0 1 0-2h42.93a1 1 0 0 1 0 2zm7 12.85v4.86l-2.38-2.38-2.64 2.64V37.3a4.46 4.46 0 1 1 5 0z"/></g></g></g></symbol><symbol id="icon-04-certficiate-exam__colored--rsb" viewBox="0 0 42.67 48.83"><title>icon-04-certficiate-exam__colored--rsb</title><g id="Layer_2" data-name="Layer 2"><g id="ON_WHITE_BG" data-name="ON WHITE BG"><g id="icon-04-certficiate-exam__colored--rsb"><path class="fill-rsb-opacity20" d="M42.67 48.83H0V0h42.67zM38.83 7.28a1.46 1.46 0 0 0-1.42-1.5H5.73a1.46 1.46 0 0 0-1.42 1.5 1.46 1.46 0 0 0 1.42 1.5h31.68a1.46 1.46 0 0 0 1.42-1.5zm-8.4 10.12a3 3 0 0 0-4.14 1.17l-7 12.49-3.41-3.41a3 3 0 1 0-4.3 4.3l6.26 6.26a3 3 0 0 0 2.16.89h.42a3 3 0 0 0 2.24-1.53l9-16a3 3 0 0 0-1.23-4.17z"/><path class="fill-rsb-opacity20" d="M28.54 27l-5.9 10.53a3 3 0 0 1-2.24 1.53h-.42a3 3 0 0 1-2.15-.89l-.25-.17L6.72 48.83h36v-36z"/><path class="opacity20 fill-rsb" d="M39.17 34.27l-9.42-9.42-7.12 12.69a3 3 0 0 1-2.24 1.53h-.42a3 3 0 0 1-2.15-.89L11.57 32a3 3 0 0 1 4.3-4.3l3.41 3.41 6-10.68-11.6-11.65h-8a1.46 1.46 0 0 1-1.42-1.5 1.46 1.46 0 0 1 1.42-1.5h5L9.2 4.31 4.9 0H0v48.83h42.67V37.77z"/></g></g></g></symbol><symbol id="icon-04-certficiate-exam__white--rsb" viewBox="0 0 42.67 48.83"><title>icon-04-certficiate-exam__white--rsb</title><g id="Layer_2" data-name="Layer 2"><g id="ON_MEDIUM_BG" data-name="ON MEDIUM BG"><g id="icon-04-certficiate-white--rsb"><path class="fill-white-opacity30" d="M42.67 48.83H0V0h42.67zM38.83 7.28a1.46 1.46 0 0 0-1.42-1.5H5.73a1.46 1.46 0 0 0-1.42 1.5 1.46 1.46 0 0 0 1.42 1.5h31.68a1.46 1.46 0 0 0 1.42-1.5zm-8.4 10.12a3 3 0 0 0-4.14 1.17l-7 12.49-3.41-3.41a3 3 0 1 0-4.3 4.3l6.26 6.26a3 3 0 0 0 2.16.89h.42a3 3 0 0 0 2.24-1.53l9-16a3 3 0 0 0-1.23-4.17z"/><path class="fill-white-opacity30" d="M28.54 27l-5.9 10.53a3 3 0 0 1-2.24 1.53h-.42a3 3 0 0 1-2.15-.89l-.25-.17L6.72 48.83h36v-36z"/><path class="opacity30 fill-white" d="M39.17 34.27l-9.42-9.42-7.12 12.69a3 3 0 0 1-2.24 1.53h-.42a3 3 0 0 1-2.15-.89L11.57 32a3 3 0 0 1 4.3-4.3l3.41 3.41 6-10.68-11.6-11.65h-8a1.46 1.46 0 0 1-1.42-1.5 1.46 1.46 0 0 1 1.42-1.5h5L9.2 4.31 4.9 0H0v48.83h42.67V37.77z"/></g></g></g></symbol><symbol id="icon-05-flexchoice__colored--rsb" viewBox="0 0 43.65 49"><title>icon-05-flexchoice__colored--rsb</title><g id="Layer_2" data-name="Layer 2"><g id="ON_WHITE_BG" data-name="ON WHITE BG"><g id="icon-05-flexchoice__colored--rsb"><path class="opacity20 fill-rsb" d="M23.73 30.3l-1 .27a3.51 3.51 0 0 1-4.08-5.3L5.79 12.36A21.82 21.82 0 0 0 36.63 43.2z"/><path class="fill-rsb-opacity20" d="M43.65 26.24a21.81 21.81 0 0 0-.93-5.45l-3 3a18.24 18.24 0 0 1 .28 2.77h-2c0-.34-.05-.67-.09-1L15.46 48a21.83 21.83 0 0 0 28-18c.2-2.12.19-3.76.19-3.76z"/><path class="fill-rsb-opacity20" d="M43.65 26.24a21.66 21.66 0 0 0-3.82-11.41l.08-.07 1.7-1.7a3.13 3.13 0 0 0-4.41-4.42l-1.6 1.6A21.69 21.69 0 0 0 25 5.57V3a3 3 0 0 0-3-3h-.3a3 3 0 0 0-3 3v2.58A21.82 21.82 0 1 0 43.49 30c.17-2.12.16-3.76.16-3.76zm-12.8-14.77A21.58 21.58 0 0 1 34 13.7L32.43 15A30.74 30.74 0 0 0 30 13zm-3.46-1.56a17.51 17.51 0 0 1 2.44 1L29 12.36A13.33 13.33 0 0 0 27 11zm-4.05-.81a17.79 17.79 0 0 1 3 .51l-.31.94a10.3 10.3 0 0 0-2.71-1zm-.58 21.46a3.52 3.52 0 1 1-.08-6.62l12.11 3.33zm10.47-14.84l1.56-1.3a19.33 19.33 0 0 1 3.15 4.32l-1.85.8a16.31 16.31 0 0 0-2.86-3.82zM38 26.56a16.15 16.15 0 0 0-1.41-6l1.86-.74A18.16 18.16 0 0 1 40 26.56z"/></g></g></g></symbol><symbol id="icon-05-flexchoice__white--rsb" viewBox="0 0 43.65 48.92"><title>icon-05-flexchoice__white--rsb</title><g id="Layer_2" data-name="Layer 2"><g id="ON_MEDIUM_BG" data-name="ON MEDIUM BG"><g id="icon-05-flexchoice__white--rsb"><path class="fill-white-opacity30" d="M43.65 26.16a21.69 21.69 0 0 0-4.22-12l.1-.09 2-2a2.54 2.54 0 1 0-3.63-3.54L36 10.45a21.71 21.71 0 0 0-11.6-5.06V2.57a2.54 2.54 0 0 0-1.77-2.4 1.77 1.77 0 0 0-1.3-.09 2.55 2.55 0 0 0-2 2.49V5.4a21.83 21.83 0 1 0 24.16 24.52c.17-2.12.16-3.76.16-3.76zm-20.9 4.32a3.52 3.52 0 1 1-.08-6.62l12.11 3.33zm15.28-4A16.24 16.24 0 0 0 23.34 11V9A18.21 18.21 0 0 1 40 26.48z"/><path class="opacity30 fill-white" d="M23.73 30.21l-1 .27a3.51 3.51 0 0 1-4.08-5.3L5.79 12.28a21.82 21.82 0 0 0 30.84 30.83z"/><path class="fill-white-opacity30" d="M43.65 26.16a21.81 21.81 0 0 0-.93-5.45l-3 3a18.24 18.24 0 0 1 .28 2.77h-2c0-.34-.05-.67-.09-1L15.46 48a21.83 21.83 0 0 0 28-18c.2-2.2.19-3.84.19-3.84z"/></g></g></g></symbol><symbol id="icon-06-hands-on__colored--rsb" viewBox="0 0 50.43 49.01"><title>icon-06-hands-on__colored--rsb</title><g id="Layer_2" data-name="Layer 2"><g id="ON_WHITE_BG" data-name="ON WHITE BG"><g id="icon-06-hands-on__colored--rsb"><path class="fill-rsb-opacity20" d="M0 30.69l.66-11.05a2 2 0 0 1 4 0v7.53c0 1.43 1.65 1.33 1.65.33V4.82a2 2 0 0 1 4 0v17c.45-.06 1-.12 1.65-.17V2a2 2 0 0 1 4 0v19.5h1.64v-16a2 2 0 0 1 4 0v16.17c.65.05 1.19.11 1.65.17V10.47a2 2 0 0 1 4 0v13.85a66.15 66.15 0 0 1 .44 7.36c0 3.88-1.44 6.79-2.44 9.17a22.49 22.49 0 0 0-2 8.16H7.92a57.61 57.61 0 0 0-1.33-9.51C4.91 37.86.86 33.83.86 33.83A3.81 3.81 0 0 1 0 30.69z"/><path class="fill-rsb-opacity20" d="M50.41 30.69l-.65-11.05a2 2 0 0 0-4 0v7.53c0 1.43-1.65 1.33-1.65.33V4.82a2 2 0 0 0-4 0v17c-.45-.06-1-.12-1.65-.17V2a2 2 0 0 0-4 0v19.5h-1.63v-16a2 2 0 0 0-4 0v16.17c-.65.05-1.19.11-1.65.17V10.47a2 2 0 0 0-4 0v13.85a66.15 66.15 0 0 0-.44 7.36c0 3.88 1.44 6.79 2.44 9.17a22.49 22.49 0 0 1 2 8.16h15.33a57.61 57.61 0 0 1 1.34-9.51c1.67-1.64 5.73-5.67 5.73-5.67a3.81 3.81 0 0 0 .83-3.14z"/><path class="fill-rsb-opacity20" d="M24.56 39.37L14.93 49h8.32a22.38 22.38 0 0 1 2-8.1v-.06z"/><path class="fill-rsb-opacity20" d="M44.12 24.32v-4.5L26.69 37.25c-.46 1.33-1 2.53-1.45 3.6v.06a22.38 22.38 0 0 1 2 8.1h15.27a57.61 57.61 0 0 1 1.34-9.51c1.67-1.64 5.73-5.67 5.73-5.67a3.81 3.81 0 0 0 .84-3.14l-.65-11.05a2 2 0 0 0-4 0v7.53c0 1.43-1.65 1.33-1.65.33v-3.18z"/><path class="fill-rsb-opacity20" d="M26.69 37.25l-2.13 2.13.63 1.48v.06-.06c.5-1.08 1.04-2.28 1.5-3.61zm.5-26.78v8.35-8.4a2 2 0 0 0-2-2 2 2 0 0 1 2 2.05zm-5.6-4.94a2 2 0 0 0-4 0v3.7l4 4zM15.95 2a2 2 0 0 0-4 0v1.58l4 4zm34.46 28.69l-.65-11.05a2 2 0 0 0-4 0v7.53c0 1.43-1.65 1.33-1.65.33V4.82a2 2 0 0 0-4 0v17c-.45-.06-1-.12-1.65-.17V2a2 2 0 0 0-4 0v19.5h-1.63v-16a2 2 0 0 0-4 0v14.96l17 17 3.7-3.67a3.81 3.81 0 0 0 .88-3.1z"/><path class="fill-rsb-opacity20" d="M23.24 10.47a2 2 0 0 1 2-2 2 2 0 0 0-2 2v4.35z"/><path class="fill-rsb-opacity20" d="M23.24 10.47v4.4l3.95 3.95v-8.35a2 2 0 1 0-3.95 0z"/></g></g></g></symbol><symbol id="icon-06-hands-on__white--rsb" viewBox="0 0 50.81 49.01"><title>icon-06-hands-on__white--rsb</title><g id="Layer_2" data-name="Layer 2"><g id="ON_MEDIUM_BG" data-name="ON MEDIUM BG"><g id="icon-06-hands-on__white--rsb"><path class="fill-white-opacity30" d="M0 30.69l.66-11.05a2 2 0 0 1 4 0v7.53c0 1.43 1.65 1.33 1.65.33V4.82a2 2 0 0 1 4 0v17c.45-.06 1-.12 1.65-.17V2a2 2 0 0 1 4 0v19.5h1.64v-16a2 2 0 0 1 4 0v16.17c.65.05 1.19.11 1.65.17V10.47a2 2 0 0 1 4 0v13.85a66.15 66.15 0 0 1 .44 7.36c0 3.88-1.44 6.79-2.44 9.17a22.49 22.49 0 0 0-2 8.16H7.92a57.61 57.61 0 0 0-1.33-9.51C4.91 37.86.86 33.83.86 33.83A3.81 3.81 0 0 1 0 30.69z"/><path class="fill-white-opacity30" d="M50.41 30.69l-.65-11.05a2 2 0 0 0-4 0v7.53c0 1.43-1.65 1.33-1.65.33V4.82a2 2 0 0 0-4 0v17c-.45-.06-1-.12-1.65-.17V2a2 2 0 0 0-4 0v19.5h-1.63v-16a2 2 0 0 0-4 0v16.17c-.65.05-1.19.11-1.65.17V10.47a2 2 0 0 0-4 0v13.85a66.15 66.15 0 0 0-.44 7.36c0 3.88 1.44 6.79 2.44 9.17a22.49 22.49 0 0 1 2 8.16h15.33a57.61 57.61 0 0 1 1.34-9.51c1.67-1.64 5.73-5.67 5.73-5.67a3.81 3.81 0 0 0 .83-3.14z"/><path class="fill-white-opacity30" d="M24.56 39.37L14.93 49h8.32a22.38 22.38 0 0 1 2-8.1v-.06z"/><path class="fill-white-opacity30" d="M44.12 24.32v-4.5L26.69 37.25c-.46 1.33-1 2.53-1.45 3.6v.06a22.38 22.38 0 0 1 2 8.1h15.27a57.61 57.61 0 0 1 1.34-9.51c1.67-1.64 5.73-5.67 5.73-5.67a3.81 3.81 0 0 0 .84-3.14l-.65-11.05a2 2 0 0 0-4 0v7.53c0 1.43-1.65 1.33-1.65.33v-3.18z"/><path class="fill-white-opacity30" d="M26.69 37.25l-2.13 2.13.63 1.48v.06-.06c.5-1.08 1.04-2.28 1.5-3.61z"/><path class="fill-white-opacity20" d="M27.57 10.47v8.35-8.4a2 2 0 0 0-2-2 2 2 0 0 1 2 2.05z"/><path class="fill-white-opacity30" d="M21.59 5.53a2 2 0 0 0-4 0v3.7l4 4zM15.95 2a2 2 0 0 0-4 0v1.58l4 4zM50.8 30.69l-.65-11.05a2 2 0 0 0-4 0v7.53c0 1.43-1.65 1.33-1.65.33V4.82a2 2 0 0 0-4 0v17c-.45-.06-1-.12-1.65-.17V2a2 2 0 0 0-4 0v19.5h-1.63v-16a2 2 0 0 0-4 0v14.96l17 17L50 33.83a3.81 3.81 0 0 0 .8-3.14z"/><path class="fill-white-opacity20" d="M23.24 10.47a2 2 0 0 1 2-2 2 2 0 0 0-2 2v4.35z"/><path class="fill-white-opacity30" d="M23.24 10.47v4.4l3.95 3.95v-8.35a2 2 0 1 0-3.95 0z"/></g></g></g></symbol><symbol id="icon-07-time-complete__colored--rsb" viewBox="0 0 85.78 49.17"><title>icon-07-time-complete__colored--rsb</title><g id="Layer_2" data-name="Layer 2"><g id="ON_WHITE_BG" data-name="ON WHITE BG"><g id="icon-07-time-complete__colored--rsb"><path class="fill-rsb-opacity20" d="M69.92 6.8C60.12-1.72 50.76.18 50.76.18l-1.3 3.75-14.51 42a2.45 2.45 0 0 0 4.63 1.6l9-26.11c17 1.35 18.32 9.44 26.34 10.5 0 0 1.28-.79 4.27-7.93a25.11 25.11 0 0 1 6.57-9C78 13.63 74.21 10.53 69.92 6.8z"/><path class="fill-rsb-opacity20" d="M50.83 45.92l-14.51-42L35 .18s-9.33-1.9-19.14 6.62C11.57 10.53 7.78 13.63 0 15a25.11 25.11 0 0 1 6.57 9c3 7.14 4.27 7.93 4.27 7.93 8-1.06 9.39-9.15 26.34-10.5l9 26.11a2.45 2.45 0 0 0 4.63-1.6z"/><path class="opacity20 fill-rsb" d="M79.21 24a25.11 25.11 0 0 1 6.57-9C78 13.63 74.21 10.53 69.92 6.8 61.62-.41 53.7-.15 51.45.09L78 26.67c.39-.78.78-1.67 1.21-2.67z"/><path class="fill-rsb-opacity20" d="M69.92 6.8C60.12-1.72 50.76.18 50.76.18l-1.3 3.75-14.51 42a2.45 2.45 0 0 0 4.63 1.6l9-26.11c7.89.58 12.42 2.7 15.76 4.86l13.71-13.72a36.49 36.49 0 0 1-8.13-5.76z"/><path class="fill-rsb-opacity20" d="M37.18 21.42L45 44.07l4.72 4.72a2.42 2.42 0 0 0 1.1-2.87l-14.51-42L35 .18s-9.33-1.9-19.14 6.62a55.72 55.72 0 0 1-4.5 3.61l13.82 13.82a35.55 35.55 0 0 1 12-2.81z"/><path class="fill-rsb-opacity20" d="M36.32 3.93L35 .18s-9.33-1.9-19.14 6.62C11.57 10.53 7.78 13.63 0 15a25.11 25.11 0 0 1 6.57 9c2 4.8 3.23 6.7 3.83 7.45L36.73 5.11z"/></g></g></g></symbol><symbol id="icon-07-time-complete__white--rsb" viewBox="0 0 85.78 49.17"><title>icon-07-time-complete__white--rsb</title><g id="Layer_2" data-name="Layer 2"><g id="ON_MEDIUM_BG" data-name="ON MEDIUM BG"><g id="icon-07-time-complete__white--rsb"><path class="fill-empty-opacity30" d="M69.92 6.8C60.12-1.72 50.76.18 50.76.18l-1.3 3.75-14.51 42a2.45 2.45 0 0 0 4.63 1.6l9-26.11c17 1.35 18.32 9.44 26.34 10.5 0 0 1.28-.79 4.27-7.93a25.11 25.11 0 0 1 6.57-9C78 13.63 74.21 10.53 69.92 6.8z"/><path class="fill-empty-opacity30" d="M50.83 45.92l-14.51-42L35 .18s-9.33-1.9-19.14 6.62C11.57 10.53 7.78 13.63 0 15a25.11 25.11 0 0 1 6.57 9c3 7.14 4.27 7.93 4.27 7.93 8-1.06 9.39-9.15 26.34-10.5l9 26.11a2.45 2.45 0 0 0 4.63-1.6z"/><path class="opacity30 fill-white" d="M79.21 24a25.11 25.11 0 0 1 6.57-9C78 13.63 74.21 10.53 69.92 6.8 61.62-.41 53.7-.15 51.45.09L78 26.67c.39-.78.78-1.67 1.21-2.67z"/><path class="fill-empty-opacity30" d="M69.92 6.8C60.12-1.72 50.76.18 50.76.18l-1.3 3.75-14.51 42a2.45 2.45 0 0 0 4.63 1.6l9-26.11c7.89.58 12.42 2.7 15.76 4.86l13.71-13.72a36.49 36.49 0 0 1-8.13-5.76z"/><path class="fill-empty-opacity30" d="M37.18 21.42L45 44.07l4.72 4.72a2.42 2.42 0 0 0 1.1-2.87l-14.51-42L35 .18s-9.33-1.9-19.14 6.62a55.72 55.72 0 0 1-4.5 3.61l13.82 13.82a35.55 35.55 0 0 1 12-2.81z"/><path class="fill-empty-opacity30" d="M36.32 3.93L35 .18s-9.33-1.9-19.14 6.62C11.57 10.53 7.78 13.63 0 15a25.11 25.11 0 0 1 6.57 9c2 4.8 3.23 6.7 3.83 7.45L36.73 5.11z"/></g></g></g></symbol><symbol id="icon-08-what-learn__colored--rsb" viewBox="0 0 60.17 49.26"><title>icon-08-what-learn__colored--rsb</title><g id="Layer_2" data-name="Layer 2"><g id="ON_WHITE_BG" data-name="ON WHITE BG"><g id="icon-08-what-learn__colored--rsb"><path id="location-1" class="fill-rsb-opacity20" d="M16.33 0C7.76 0 0 6.95 0 15.52S7.08 34.33 16.33 49c9.25-14.67 16.33-24.91 16.33-33.48S24.91 0 16.33 0z"/><path class="fill-empty" d="M25 16.33a8.61 8.61 0 0 0-15.62-5.08L16.12 18l3.45-6.51 1.77.94-3.74 7.05 3.81 3.81A8.6 8.6 0 0 0 25 16.33z"/><path class="fill-rsb-opacity20" d="M21.41 23.29l6.6 6.6c2.9-5.43 4.65-10.11 4.65-14.37C32.67 6.95 24.91 0 16.33 0a16.86 16.86 0 0 0-12.5 5.71l5.55 5.55z"/><path class="fill-empty" d="M24.76 18.16l-6.59 6.59a8.63 8.63 0 0 0 6.59-6.59z"/><path class="fill-rsb-opacity20" d="M7.7 35.22c2.48 4.14 5.42 8.69 8.63 13.78 9.25-14.67 16.33-24.91 16.33-33.48a14.19 14.19 0 0 0-.74-4.52l-7.16 7.16z"/><path id="location-1-2" data-name="location-1" class="fill-rsb-opacity20" d="M43.83.26C35.26.26 27.5 7.2 27.5 15.78s7.08 18.8 16.33 33.48c9.25-14.67 16.33-24.91 16.33-33.48S52.41.26 43.83.26z"/><path class="fill-rsb-opacity20" d="M48.91 23.55l6.6 6.6c2.9-5.43 4.65-10.11 4.65-14.37C60.17 7.2 52.41.26 43.83.26A16.86 16.86 0 0 0 31.33 6l5.55 5.55z"/><path class="fill-empty" d="M52.26 18.42L45.66 25a8.63 8.63 0 0 0 6.6-6.58z"/><path class="fill-rsb-opacity20" d="M35.2 35.48c2.48 4.14 5.42 8.69 8.63 13.78 9.25-14.67 16.33-24.91 16.33-33.48a14.19 14.19 0 0 0-.75-4.52l-7.16 7.16z"/><path class="fill-white" d="M32.27 18.66V24h-5v-5.34h-5.38v-5h5.38V8.29h5v5.37h5.38v5z"/></g></g></g></symbol><symbol id="icon-08-what-learn__white--rsb" viewBox="0 0 60.17 49.26"><title>icon-08-what-learn__white--rsb</title><g id="Layer_2" data-name="Layer 2"><g id="ON_MEDIUM_BG" data-name="ON MEDIUM BG"><g id="icon-08-what-learn__white--rsb"><path id="location-1" class="fill-white-opacity20" d="M16.33 0C7.76 0 0 6.95 0 15.52S7.08 34.33 16.33 49c9.25-14.67 16.33-24.91 16.33-33.48S24.91 0 16.33 0z"/><path class="fill-white-opacity20" d="M21.33 23.29l6.6 6.6c2.9-5.43 4.65-10.11 4.65-14.37C32.58 6.95 24.82 0 16.25 0A16.86 16.86 0 0 0 3.74 5.71l5.55 5.55z"/><path class="fill-empty" d="M24.76 18.16l-6.59 6.59a8.63 8.63 0 0 0 6.59-6.59z"/><path class="fill-white-opacity20" d="M7.7 35.22c2.48 4.14 5.42 8.69 8.63 13.78 9.25-14.67 16.33-24.91 16.33-33.48a14.19 14.19 0 0 0-.74-4.52l-7.16 7.16z"/><path id="location-1-2" data-name="location-1" class="fill-white-opacity20" d="M43.83.26C35.26.26 27.5 7.2 27.5 15.78s7.08 18.8 16.33 33.48c9.25-14.67 16.33-24.91 16.33-33.48S52.41.26 43.83.26z"/><path class="fill-white-opacity20" d="M48.91 23.55l6.6 6.6c2.9-5.43 4.65-10.11 4.65-14.37C60.17 7.2 52.41.26 43.83.26A16.86 16.86 0 0 0 31.33 6l5.55 5.55z"/><path class="fill-white-opacity20" d="M35.2 35.37c2.48 4.14 5.42 8.69 8.63 13.78 9.25-14.67 16.33-24.91 16.33-33.48a14.19 14.19 0 0 0-.75-4.52l-7.16 7.16z"/><path class="fill-white" d="M32.27 18.66V24h-5v-5.34h-5.38v-5h5.38V8.29h5v5.37h5.38v5z"/></g></g></g></symbol><symbol id="icon-09-faculty__colored--rsb" viewBox="0 0 80.18 49.34"><title>icon-09-faculty__colored--rsb</title><g id="Layer_2" data-name="Layer 2"><g id="ON_WHITE_BG" data-name="ON WHITE BG"><g id="icon-09-faculty__colored--rsb"><path id="user-3" class="fill-rsb-opacity20" d="M0 49.34h49.33v-1.42c0-3.16-.41-6.82-6.53-8.23s-13.52-5-11.34-9.71c1.41 2.31 5.76 3.65 9.15 1.65-9.76-2.48 4.8-19.47-8-29a13.42 13.42 0 0 0-8-2.64 13 13 0 0 0-7.94 2.64c-12.76 9.53 1.8 26.52-8 29 3.39 2 7.75.6 9.15-1.65 2.19 4.7-5.24 8.31-11.34 9.71S0 44.76 0 47.92"/><path id="user-3-2" data-name="user-3" class="fill-rsb-opacity20" d="M0 49.34h49.33v-1.42c0-3.16-.41-6.82-6.53-8.23s-13.52-5-11.34-9.71c1.41 2.31 5.76 3.65 9.15 1.65-9.76-2.48 4.8-19.47-8-29a13.42 13.42 0 0 0-8-2.64 13 13 0 0 0-7.94 2.64c-12.76 9.53 1.8 26.52-8 29 3.39 2 7.75.6 9.15-1.65 2.19 4.7-5.24 8.31-11.34 9.71S0 44.76 0 47.92"/><path id="user-14" class="fill-rsb-opacity20" d="M73.64 37.2c-7.07-1.63-13.64-3.06-10.46-9.08C72.88 9.8 65.75 0 55.51 0c-10.45 0-17.4 10.17-7.67 28.12 3.28 6.05-3.55 7.48-10.46 9.08-6.12 1.41-6.53 4.41-6.53 9.59v2.55H52.4l1.45-6.17h3.32l1.45 6.17h21.55v-2.55c.01-5.18-.4-8.17-6.53-9.59zm-16.92 3.92h-2.39L52.46 37h6.16z"/><path id="user-14-2" data-name="user-14" class="fill-rsb-opacity20" d="M73.64 37.2c-7.07-1.63-13.64-3.06-10.46-9.08C72.88 9.8 65.75 0 55.51 0c-10.45 0-17.4 10.17-7.67 28.12 3.28 6.05-3.55 7.48-10.46 9.08-6.12 1.41-6.53 4.41-6.53 9.59v2.55H52.4l1.45-6.17h3.32l1.45 6.17h21.55v-2.55c.01-5.18-.4-8.17-6.53-9.59zm-16.92 3.92h-2.39L52.46 37h6.16z"/><path class="fill-rsb-opacity20" d="M55.51 0C45.07 0 38.13 10.15 47.8 28.06L67.25 8.6C65.76 3 61.11 0 55.51 0zM39 36.81l-1.68.39c-.34.08-.66.17-1 .25q.67.33 1.38.63z"/><path class="fill-rsb-opacity20" d="M30.87 45l6.91-6.91q-.71-.3-1.38-.63c-4.52 1.31-5.4 3.7-5.53 7.54z"/><path class="fill-rsb-opacity20" d="M30.87 45l6.91-6.91q-.71-.3-1.38-.63c-4.52 1.31-5.4 3.7-5.53 7.54zm49.31 1.79c0-5.18-.41-8.17-6.53-9.59-7.08-1.63-13.65-3.06-10.47-9.08C72.88 9.8 65.75 0 55.51 0c-7.9 0-13.79 5.83-12 16.42l32.93 32.92h3.73c0-.9.01-1.75.01-2.55z"/><path class="fill-rsb-opacity20" d="M0 49.34h49.33v-1.42c0-3.16-.41-6.82-6.53-8.23s-13.52-5-11.34-9.71c1.41 2.31 5.76 3.65 9.15 1.65-9.29-2.36 3.44-17.87-6.33-27.58l-22 22c.06 2.79-.66 4.86-3.61 5.61 3.39 2 7.75.6 9.15-1.65 2.19 4.7-5.24 8.31-11.34 9.71S0 44.76 0 47.92"/><path class="fill-rsb-opacity20" d="M42.81 39.69l-.56-.14 7.05 7.05c-.18-2.8-1.21-5.7-6.49-6.91zm-2.19-8.06c-9.76-2.48 4.8-19.47-8-29a13.42 13.42 0 0 0-8-2.64 13 13 0 0 0-7.94 2.64 13 13 0 0 0-4.81 6.53L35 32.35a7.34 7.34 0 0 0 5.62-.72z"/></g></g></g></symbol><symbol id="icon-09-faculty__white--rsb" viewBox="0 0 80.18 49.34"><title>icon-09-faculty__white--rsb</title><g id="Layer_2" data-name="Layer 2"><g id="ON_MEDIUM_BG" data-name="ON MEDIUM BG"><g id="icon-09-faculty__white--rsb"><path id="user-3" class="fill-white-opacity20" d="M0 49.34h49.33v-1.42c0-3.16-.41-6.82-6.53-8.23s-13.52-5-11.34-9.71c1.41 2.31 5.76 3.65 9.15 1.65-9.76-2.48 4.8-19.47-8-29a13.42 13.42 0 0 0-8-2.64 13 13 0 0 0-7.94 2.64c-12.76 9.53 1.8 26.52-8 29 3.39 2 7.75.6 9.15-1.65 2.19 4.7-5.24 8.31-11.34 9.71S0 44.76 0 47.92"/><path id="user-3-2" data-name="user-3" class="fill-white-opacity30" d="M0 49.34h49.33v-1.42c0-3.16-.41-6.82-6.53-8.23s-13.52-5-11.34-9.71c1.41 2.31 5.76 3.65 9.15 1.65-9.76-2.48 4.8-19.47-8-29a13.42 13.42 0 0 0-8-2.64 13 13 0 0 0-7.94 2.64c-12.76 9.53 1.8 26.52-8 29 3.39 2 7.75.6 9.15-1.65 2.19 4.7-5.24 8.31-11.34 9.71S0 44.76 0 47.92"/><path id="user-14" class="fill-white-opacity20" d="M73.64 37.2c-7.07-1.63-13.64-3.06-10.46-9.08C72.88 9.8 65.75 0 55.51 0c-10.45 0-17.4 10.17-7.67 28.12 3.28 6.05-3.55 7.48-10.46 9.08-6.12 1.41-6.53 4.41-6.53 9.59v2.55H52.4l1.45-6.17h3.32l1.45 6.17h21.55v-2.55c.01-5.18-.4-8.17-6.53-9.59zm-16.92 3.92h-2.39L52.46 37h6.16z"/><path id="user-14-2" data-name="user-14" class="fill-white-opacity30" d="M73.64 37.2c-7.07-1.63-13.64-3.06-10.46-9.08C72.88 9.8 65.75 0 55.51 0c-10.45 0-17.4 10.17-7.67 28.12 3.28 6.05-3.55 7.48-10.46 9.08-6.12 1.41-6.53 4.41-6.53 9.59v2.55H52.4l1.45-6.17h3.32l1.45 6.17h21.55v-2.55c.01-5.18-.4-8.17-6.53-9.59zm-16.92 3.92h-2.39L52.46 37h6.16z"/><path class="fill-white-opacity20" d="M55.51 0C45.07 0 38.13 10.15 47.8 28.06L67.25 8.6C65.76 3 61.11 0 55.51 0zM39 36.81l-1.68.39c-.34.08-.66.17-1 .25q.67.33 1.38.63z"/><path class="fill-white-opacity20" d="M30.87 45l6.91-6.91q-.71-.3-1.38-.63c-4.52 1.31-5.4 3.7-5.53 7.54z"/><path class="fill-white-opacity20" d="M30.87 45l6.91-6.91q-.71-.3-1.38-.63c-4.52 1.31-5.4 3.7-5.53 7.54z"/><path class="fill-white-opacity30" d="M80.18 46.79c0-5.18-.41-8.17-6.53-9.59-7.08-1.63-13.65-3.06-10.47-9.08C72.88 9.8 65.75 0 55.51 0c-7.9 0-13.79 5.83-12 16.42l32.93 32.92h3.73c0-.9.01-1.75.01-2.55zM0 49.34h49.33v-1.42c0-3.16-.41-6.82-6.53-8.23s-13.52-5-11.34-9.71c1.41 2.31 5.76 3.65 9.15 1.65-9.29-2.36 3.44-17.87-6.33-27.58l-22 22c.06 2.79-.66 4.86-3.61 5.61 3.39 2 7.75.6 9.15-1.65 2.19 4.7-5.24 8.31-11.34 9.71S0 44.76 0 47.92"/><path class="fill-white-opacity20" d="M42.81 39.69l-.56-.14 7.05 7.05c-.18-2.8-1.21-5.7-6.49-6.91z"/><path class="fill-white-opacity30" d="M40.62 31.63c-9.76-2.48 4.8-19.47-8-29a13.42 13.42 0 0 0-8-2.64 13 13 0 0 0-7.94 2.64 13 13 0 0 0-4.81 6.53L35 32.35a7.34 7.34 0 0 0 5.62-.72z"/></g></g></g></symbol><symbol id="icon-10-affordability__colored--rsb" viewBox="0 0 35.35 49.99"><title>icon-10-affordability__colored--rsb</title><g id="Layer_2" data-name="Layer 2"><g id="ON_WHITE_BG" data-name="ON WHITE BG"><g id="icon-10-affordability__colored--rsb"><circle class="fill-empty" cx="17.68" cy="4.21" r="1.8"/><path class="fill-rsb-opacity20" d="M27.32 7.2v-3h-5.44a4.21 4.21 0 1 0-8.41 0H8v3H0V50h35.35V7.2zm-9.64-4.79a1.8 1.8 0 1 1-1.8 1.8 1.8 1.8 0 0 1 1.8-1.8zM5.41 21.69h.46L8.19 24H5.41a1.16 1.16 0 0 1 0-2.32zm0 6.18h6.64l2.32 2.32h-9a1.16 1.16 0 1 1 0-2.32zm0 8.5a1.16 1.16 0 1 1 0-2.32h12.82l2.32 2.32zm22.51 5.18L4.67 18.31l2.73-2.74 23.25 23.25zm2.61-5.18h-.14l-2.32-2.32h2.46a1.16 1.16 0 0 1 0 2.32zm0-6.18H24.2l-2.32-2.32h8.64a1.16 1.16 0 0 1 0 2.32zm0-6.18H18l-2.3-2.32h14.82a1.16 1.16 0 0 1 0 2.32z"/><path class="fill-rsb-opacity20" d="M27.32 7.2v-3h-5.44a4.21 4.21 0 0 0-8.41 0H8v3H0v15l5.7 5.7h6.35l2.32 2.32H8l3.86 3.86h6.35l2.32 2.32H14.2L27.82 50h7.54V7.2zm-9.64-4.79a1.8 1.8 0 1 1-1.8 1.8 1.8 1.8 0 0 1 1.8-1.8zM5.41 24a1.16 1.16 0 0 1 0-2.32h.46L8.19 24zm22.51 17.55L4.67 18.31l2.73-2.74 23.25 23.25zm2.61-5.18h-.14l-2.32-2.32h2.46a1.16 1.16 0 0 1 0 2.32zm0-6.18H24.2l-2.32-2.32h8.64a1.16 1.16 0 0 1 0 2.32zm0-6.18H18l-2.3-2.32h14.82a1.16 1.16 0 0 1 0 2.32z"/><path class="fill-rsb-opacity20" d="M31.62 22.49a1.15 1.15 0 0 1 .06.36A1.16 1.16 0 0 1 30.52 24h-.42l-3.86 3.86h4.28a1.16 1.16 0 0 1 0 2.32H24.2l-.14-.18L23 31.14l7.68 7.68-2.73 2.73-7.68-7.68L19.15 35l1.41 1.41h-2.82L4.12 50h31.23V18.76zm-1.1 13.88h-.14l-2.32-2.32h2.46a1.16 1.16 0 0 1 0 2.32z"/></g></g></g></symbol><symbol id="icon-10-affordability__white--rsb" viewBox="0 0 35.35 49.99"><title>icon-10-affordability__white--rsb</title><g id="Layer_2" data-name="Layer 2"><g id="ON_MEDIUM_BG" data-name="ON MEDIUM BG"><g id="icon-10-affordability__white--rsb"><path class="fill-white-opacity30" d="M27.32 7.2v-3h-5.44a4.21 4.21 0 1 0-8.41 0H8v3H0V50h35.35V7.2zm-9.64-4.79a1.8 1.8 0 1 1-1.8 1.8 1.8 1.8 0 0 1 1.8-1.8zM5.41 21.69h.46L8.19 24H5.41a1.16 1.16 0 0 1 0-2.32zm0 6.18h6.64l2.32 2.32h-9a1.16 1.16 0 1 1 0-2.32zm0 8.5a1.16 1.16 0 1 1 0-2.32h12.82l2.32 2.32zm22.51 5.18L4.67 18.31l2.73-2.74 23.25 23.25zm2.61-5.18h-.14l-2.32-2.32h2.46a1.16 1.16 0 0 1 0 2.32zm0-6.18H24.2l-2.32-2.32h8.64a1.16 1.16 0 0 1 0 2.32zm0-6.18H18l-2.3-2.32h14.82a1.16 1.16 0 0 1 0 2.32z"/><path class="fill-white-opacity30" d="M27.32 7.2v-3h-5.44a4.21 4.21 0 0 0-8.41 0H8v3H0v15l5.7 5.7h6.35l2.32 2.32H8l3.86 3.86h6.35l2.32 2.32H14.2L27.82 50h7.54V7.2zm-9.64-4.79a1.8 1.8 0 1 1-1.8 1.8 1.8 1.8 0 0 1 1.8-1.8zM5.41 24a1.16 1.16 0 0 1 0-2.32h.46L8.19 24zm22.51 17.55L4.67 18.31l2.73-2.74 23.25 23.25zm2.61-5.18h-.14l-2.32-2.32h2.46a1.16 1.16 0 0 1 0 2.32zm0-6.18H24.2l-2.32-2.32h8.64a1.16 1.16 0 0 1 0 2.32zm0-6.18H18l-2.3-2.32h14.82a1.16 1.16 0 0 1 0 2.32z"/><path class="fill-white-opacity30" d="M31.62 22.49a1.15 1.15 0 0 1 .06.36A1.16 1.16 0 0 1 30.52 24h-.42l-3.86 3.86h4.28a1.16 1.16 0 0 1 0 2.32H24.2l-.14-.18L23 31.14l7.68 7.68-2.73 2.73-7.68-7.68L19.15 35l1.41 1.41h-2.82L4.12 50h31.23V18.76zm-1.1 13.88h-.14l-2.32-2.32h2.46a1.16 1.16 0 0 1 0 2.32z"/></g></g></g></symbol><symbol id="icon-11-career-advance__colored--rsb" viewBox="0 0 85.88 48.76"><title>icon-11-career-advance__colored--rsb</title><g id="Layer_2" data-name="Layer 2"><g id="ON_WHITE_BG" data-name="ON WHITE BG"><g id="icon-11-career-advice__colored--rsb"><path class="fill-rsb-opacity20" d="M85 22.26L63.42.67C62.25-.5 61.3-.1 61.3 1.55v5.57h-27c2.09 1.09 9.41 3.33 13.55 8.64C39.86 11.6 26 9.26 14.93 13 24 13.69 31.5 14 37 20.77a42 42 0 0 0-13.5-2.65C16.13 18 8.65 23.53 0 19.27c4.19 5.87 10.53 5.21 17.61 5.73 8.25.65 9.21 3.73 20.64 4.73-14.12 6.88-15.77-3.08-29.94 4.58 13.83-1.17 17.19 7.29 32.08 7.29H61.3v5.57c0 1.65 1 2 2.12.88L85 26.5a3 3 0 0 0 0-4.24z"/><path class="fill-rsb-opacity20" d="M85 22.26L74.38 11.64l-30 30H61.3v5.57c0 1.65 1 2 2.12.88L85 26.5a3 3 0 0 0 0-4.24z"/><path class="fill-rsb-opacity20" d="M85 22.26L63.42.67C62.25-.5 61.3-.1 61.3 1.55v5.57h-27c2.09 1.09 9.41 3.33 13.55 8.64A44.22 44.22 0 0 0 33 11.49L66.53 45 85 26.5a3 3 0 0 0 0-4.24z"/></g></g></g></symbol><symbol id="icon-11-career-advance__white--rsb" viewBox="0 0 81.61 48.76"><title>icon-11-career-advance__white--rsb</title><g id="Layer_2" data-name="Layer 2"><g id="ON_MEDIUM_BG" data-name="ON MEDIUM BG"><g id="icon-11-career-advice__white--rsb"><path class="fill-white-opacity30" d="M80.73 22.26L59.15.67C58-.5 57-.1 57 1.55v5.57H30c2.09 1.09 9.41 3.33 13.55 8.64-8-4.16-21.84-6.5-32.88-2.75 9.11.68 17.82 1.78 21.13 8.64-4.64-4.06-21.7-5.89-31.79 1.3 11.79 0 26 2.45 29.37 10.64C21.63 36 15.36 32.51 11 30a22.07 22.07 0 0 0 19 11.64h27v5.57c0 1.65 1 2 2.12.88L80.73 26.5a3 3 0 0 0 0-4.24z"/><path class="fill-white-opacity30" d="M80.73 22.26L59.15.67C58-.5 57-.1 57 1.55v5.57H30c2.09 1.09 9.41 3.33 13.55 8.64A42.09 42.09 0 0 0 31.85 12l31.72 31.67L80.73 26.5a3 3 0 0 0 0-4.24z"/><path class="fill-white-opacity30" d="M80.73 22.26L70.11 11.64l-30 30H57v5.57c0 1.65 1 2 2.12.88L80.73 26.5a3 3 0 0 0 0-4.24z"/></g></g></g></symbol><symbol id="icon-12-job-outcomes__colored--rsb" viewBox="0 0 73.99 49.32"><title>icon-12-job-outcomes__colored--rsb</title><g id="Layer_2" data-name="Layer 2"><g id="ON_WHITE_BG" data-name="ON WHITE BG"><g id="icon-12-job-outcomes__colored--rsb"><path class="fill-rsb-opacity20" d="M37 3.31a24.66 24.66 0 0 0-25.16.29l13.89 13.88A24.72 24.72 0 0 1 37 3.31zm37 21.35A24.66 24.66 0 0 0 37 3.31a24.66 24.66 0 0 1 8.74 34.18L56.5 48.26A24.67 24.67 0 0 0 74 24.66z"/><path class="fill-rsb-opacity20" d="M24.66 24.66A24.65 24.65 0 0 1 37 3.31a24.66 24.66 0 0 0-25.7 42.07l14.23-14.24a24.68 24.68 0 0 1-.87-6.48zm20.72-13.37L55.81.87A24.65 24.65 0 0 0 37 3.31a24.78 24.78 0 0 1 8.38 7.98z"/><path class="fill-rsb-opacity20" d="M49.32 24.66A24.65 24.65 0 0 0 37 3.31a24.72 24.72 0 0 0-11.27 14.17l4.15 4.15h4.62v-5.37h5v5.38h5.38v5h-5.39v4.62l6.24 6.24a24.55 24.55 0 0 0 3.59-12.84z"/><path class="fill-rsb-opacity20" d="M29.12 21.63h5.37v-5.37h5v.92l5.89-5.89a24.78 24.78 0 0 0-8.39-8 24.66 24.66 0 0 0-11.46 27.85L30 26.63h-.92z"/><path class="fill-rsb-opacity20" d="M29.12 21.63h5.37v-5.37h5v.92l5.89-5.89a24.78 24.78 0 0 0-8.39-8 24.66 24.66 0 0 0-11.46 27.85L30 26.63h-.92z"/><path class="fill-rsb-opacity20" d="M24.66 0a24.66 24.66 0 1 0 24.66 24.66A24.66 24.66 0 0 0 24.66 0zm14.83 26.63V32h-5v-5.37h-5.37v-5h5.37v-5.37h5v5.38h5.38v5z"/><path class="fill-rsb-opacity20" d="M49.32 0A24.66 24.66 0 1 0 74 24.66 24.66 24.66 0 0 0 49.32 0zm-4.45 26.63h-5.38V32h-5v-5.37h-5.37v-5h5.37v-5.37h5v5.38h5.38z"/><path class="fill-rsb-opacity20" d="M49.32 24.66A24.65 24.65 0 0 0 37 3.31a24.72 24.72 0 0 0-11.27 14.17l4.15 4.15h4.62v-5.37h5v5.38h5.38v5h-5.39v4.62l6.24 6.24a24.55 24.55 0 0 0 3.59-12.84z"/></g></g></g></symbol><symbol id="icon-12-job-outcomes__white--rsb" viewBox="0 0 73.99 49.32"><title>icon-12-job-outcomes__white--rsb</title><g id="Layer_2" data-name="Layer 2"><g id="ON_MEDIUM_BG" data-name="ON MEDIUM BG"><g id="icon-12-job-outcomes__white--rsb"><path class="fill-white-opacity20" d="M37 3.31a24.66 24.66 0 0 0-25.16.29l13.89 13.88A24.72 24.72 0 0 1 37 3.31zm37 21.35A24.66 24.66 0 0 0 37 3.31a24.66 24.66 0 0 1 8.74 34.18L56.5 48.26A24.67 24.67 0 0 0 74 24.66z"/><path class="fill-white-opacity20" d="M24.66 24.66A24.65 24.65 0 0 1 37 3.31a24.66 24.66 0 0 0-25.7 42.07l14.23-14.24a24.68 24.68 0 0 1-.87-6.48zm20.72-13.37L55.81.87A24.65 24.65 0 0 0 37 3.31a24.78 24.78 0 0 1 8.38 7.98z"/><path class="fill-white-opacity20" d="M49.32 24.66A24.65 24.65 0 0 0 37 3.31a24.72 24.72 0 0 0-11.27 14.17l4.15 4.15h4.62v-5.37h5v5.38h5.38v5h-5.39v4.62l6.24 6.24a24.55 24.55 0 0 0 3.59-12.84z"/><path class="fill-white-opacity20" d="M29.12 21.63h5.37v-5.37h5v.92l5.89-5.89a24.78 24.78 0 0 0-8.39-8 24.66 24.66 0 0 0-11.46 27.85L30 26.63h-.92z"/><path class="fill-white-opacity20" d="M29.12 21.63h5.37v-5.37h5v.92l5.89-5.89a24.78 24.78 0 0 0-8.39-8 24.66 24.66 0 0 0-11.46 27.85L30 26.63h-.92z"/><path class="fill-white-opacity20" d="M24.66 0a24.66 24.66 0 1 0 24.66 24.66A24.66 24.66 0 0 0 24.66 0zm14.83 26.63V32h-5v-5.37h-5.37v-5h5.37v-5.37h5v5.38h5.38v5z"/><path class="fill-white-opacity20" d="M49.32 0A24.66 24.66 0 1 0 74 24.66 24.66 24.66 0 0 0 49.32 0zm-4.45 26.63h-5.38V32h-5v-5.37h-5.37v-5h5.37v-5.37h5v5.38h5.38z"/><path class="fill-white-opacity20" d="M49.32 24.66A24.65 24.65 0 0 0 37 3.31a24.72 24.72 0 0 0-11.27 14.17l4.15 4.15h4.62v-5.37h5v5.38h5.38v5h-5.39v4.62l6.24 6.24a24.55 24.55 0 0 0 3.59-12.84z"/></g></g></g></symbol><symbol id="icon-13-24hr-support__colored--rsb" viewBox="0 0 56.55 50.41"><title>icon-13-24hr-support__colored--rsb</title><g id="Layer_2" data-name="Layer 2"><g id="ON_WHITE_BG" data-name="ON WHITE BG"><g id="icon-13-24hr-support__colored--rsb"><path class="fill-rsb-opacity20" d="M27.39 0v7.29a2.25 2.25 0 1 1-4.5 0V0A25.2 25.2 0 0 0 8.85 5.9L19.7 16.75a10.12 10.12 0 0 1 15.53 7.6L47.08 12.5A25.3 25.3 0 0 0 27.39 0z"/><path class="fill-rsb-opacity40" d="M15 25.29a10.12 10.12 0 0 1 4.69-8.54L8.85 5.9A25.25 25.25 0 0 0 0 23h6.75a2.25 2.25 0 1 1 0 4.5H0a25.3 25.3 0 0 0 12.49 19.59l11.75-11.75C19.91 34.74 15 31 15 25.29z"/><path class="fill-rsb-opacity70" d="M22.9 42.58a2.25 2.25 0 0 1 4.5 0v7.83a25.16 25.16 0 0 0 12-4.22l-8.64-12.47a9.61 9.61 0 0 1-5.62 1.7 9 9 0 0 1-.91-.08L12.49 47.09A25.17 25.17 0 0 0 22.9 50.4z"/><path class="fill-rsb-opacity20" d="M30.93 25.36s-2.52 0-.74 1.78l1.29 1.29 3.06-3.06z"/><path class="fill-rsb-opacity40" d="M55.21 25.36h-4.69v-.16a25.18 25.18 0 0 0-3.42-12.71L35.23 24.35v1.01h-.73l-3.06 3.06 9.8 9.78a2.47 2.47 0 0 0 3.56 0l11.14-11.06s1.78-1.78-.73-1.78z"/></g></g></g></symbol><symbol id="icon-13-24hr-support__white--rsb" viewBox="0 0 56.54 50.41"><title>icon-13-24hr-support__white--rsb</title><g id="Layer_2" data-name="Layer 2"><g id="ON_MEDIUM_BG" data-name="ON MEDIUM BG"><g id="icon-13-24hr-support__white--rsb"><path class="fill-white-opacity20" d="M27.39 0v7.29a2.25 2.25 0 0 1-4.5 0V0A25.2 25.2 0 0 0 8.85 5.9L19.7 16.75a10.12 10.12 0 0 1 15.53 7.6L47.08 12.5A25.3 25.3 0 0 0 27.39 0z"/><path class="fill-white-opacity40" d="M15 25.29a10.12 10.12 0 0 1 4.69-8.54L8.85 5.9A25.25 25.25 0 0 0 0 23h6.75a2.25 2.25 0 0 1 0 4.5H0a25.3 25.3 0 0 0 12.49 19.59l11.75-11.75C19.91 34.74 15 31 15 25.29z"/><path class="fill-white-opacity70" d="M22.9 42.58a2.25 2.25 0 0 1 4.5 0v7.83a25.16 25.16 0 0 0 12-4.22l-8.64-12.47a9.61 9.61 0 0 1-5.62 1.7 9 9 0 0 1-.91-.08L12.49 47.09A25.17 25.17 0 0 0 22.9 50.4z"/><path class="fill-white-opacity20" d="M30.91 25.36s-2.52 0-.74 1.78l1.29 1.29 3.06-3.06z"/><path class="fill-white-opacity40" d="M55.19 25.36H50.5v-.16a25.18 25.18 0 0 0-3.42-12.7L35.23 24.35v1.02h-.75l-3.06 3.06 9.8 9.78a2.47 2.47 0 0 0 3.56 0l11.14-11.07s1.79-1.78-.73-1.78z"/></g></g></g></symbol><symbol id="icon-14-power-healing__colored--rsb" viewBox="0 0 72.11 48.78"><title>icon-14-power-healing__colored--rsb</title><g id="Layer_2" data-name="Layer 2"><g id="ON_WHITE_BG" data-name="ON WHITE BG"><g id="icon-14-power-healing__colored--rsb"><path class="fill-rsb-opacity20" d="M.68 48.77v.01-6.68 6.67zm17.47-24.48a1.46 1.46 0 0 1-.4.52l5.6 5.68-1.77-14zM28.9 29.2l3.45-3.46h-2.77l-.68 3.46z"/><path class="fill-rsb-opacity20" d="M0 48.48h9.61l14.22-14.21-2.25-17.74-3.43 7.77a1.49 1.49 0 0 1-1.36.89H0"/><path class="fill-rsb-opacity20" d="M0 22.2h15.82L21 10.41a1.47 1.47 0 0 1 1.58-.87 1.49 1.49 0 0 1 1.26 1.29l2.2 17.34.85-4.17a1.49 1.49 0 0 1 1.46-1.2h7L58.07 0H0"/><path class="fill-rsb-opacity20" d="M0 22.2h15.82L21 10.41a1.47 1.47 0 0 1 1.58-.87 1.49 1.49 0 0 1 1.26 1.29l2.2 17.34.85-4.17a1.49 1.49 0 0 1 1.46-1.2H58.2a1.49 1.49 0 0 1 0 3H29.58l-2.38 12a1.49 1.49 0 0 1-1.46 1.2h-.05a1.49 1.49 0 0 1-1.43-1.3l-2.68-21.17-3.43 7.77a1.49 1.49 0 0 1-1.36.89H0v23.3h72V0H0zm58.78 10.13A2.21 2.21 0 0 1 61 34.54a2.23 2.23 0 0 1 2.24-2.17 3.17 3.17 0 0 1 3.2 3.17c0 1.77-2.41 5-5.44 7.12-3-2.17-5.44-5.35-5.44-7.12a3.2 3.2 0 0 1 3.2-3.2"/><path class="fill-rsb-opacity20" d="M72.11 0L72 48.48l-30.86.18L27.7 35l1.83-9.29H58.2a1.5 1.5 0 0 0 0-3H28.3A1.5 1.5 0 0 0 26.82 24l-.76 4.32-2.28-17.6a1.29 1.29 0 0 0-1.18-1.19 1.47 1.47 0 0 0-1.58.88l-5.2 11.77H15L0 6.85V0zM58.72 32.4a3.07 3.07 0 0 0-3.16 3.11c0 1.78 2.38 4.94 5.43 7.13 3-2.19 5.41-5.31 5.41-7.09a3.1 3.1 0 0 0-3.2-3.1 2.23 2.23 0 0 0-2.2 2.17 2.22 2.22 0 0 0-2.19-2.22"/></g></g></g></symbol><symbol id="icon-14-power-healing__white--rsb" viewBox="0 0 72.11 48.78"><title>icon-14-power-healing__white--rsb</title><g id="Layer_2" data-name="Layer 2"><g id="ON_MEDIUM_BG" data-name="ON MEDIUM BG"><g id="icon-14-power-healing__white--rsb"><path class="fill-rsb-opacity20" d="M.68 48.77v.01-6.68 6.67z"/><path class="fill-white-opacity30" d="M18.15 24.29a1.46 1.46 0 0 1-.4.52l5.6 5.68-1.77-14zM28.9 29.2l3.45-3.46h-2.77l-.68 3.46z"/><path class="fill-white-opacity30" d="M0 48.48h9.61l14.22-14.21-2.25-17.74-3.43 7.77a1.49 1.49 0 0 1-1.36.89H0"/><path class="fill-white-opacity30" d="M0 22.2h15.82L21 10.41a1.47 1.47 0 0 1 1.58-.87 1.49 1.49 0 0 1 1.26 1.29l2.2 17.34.85-4.17a1.49 1.49 0 0 1 1.46-1.2h7L58.07 0H0"/><path class="fill-white-opacity30" d="M0 22.2h15.82L21 10.41a1.47 1.47 0 0 1 1.58-.87 1.49 1.49 0 0 1 1.26 1.29l2.2 17.34.85-4.17a1.49 1.49 0 0 1 1.46-1.2H58.2a1.49 1.49 0 0 1 0 3H29.58l-2.38 12a1.49 1.49 0 0 1-1.46 1.2h-.05a1.49 1.49 0 0 1-1.43-1.3l-2.68-21.17-3.43 7.77a1.49 1.49 0 0 1-1.36.89H0v23.3h72V0H0zm58.78 10.13A2.21 2.21 0 0 1 61 34.54a2.23 2.23 0 0 1 2.24-2.17 3.17 3.17 0 0 1 3.2 3.17c0 1.77-2.41 5-5.44 7.12-3-2.17-5.44-5.35-5.44-7.12a3.2 3.2 0 0 1 3.2-3.2"/><path class="fill-white-opacity30" d="M72.11 0L72 48.48l-30.86.18L27.7 35l1.83-9.29H58.2a1.5 1.5 0 0 0 0-3H28.3A1.5 1.5 0 0 0 26.82 24l-.76 4.32-2.28-17.6a1.29 1.29 0 0 0-1.18-1.19 1.47 1.47 0 0 0-1.58.88l-5.2 11.77H15L0 6.85V0zM58.72 32.4a3.07 3.07 0 0 0-3.16 3.11c0 1.78 2.38 4.94 5.43 7.13 3-2.19 5.41-5.31 5.41-7.09a3.1 3.1 0 0 0-3.2-3.1 2.23 2.23 0 0 0-2.2 2.17 2.22 2.22 0 0 0-2.19-2.22"/></g></g></g></symbol><symbol id="icon-15-program-skills__colored--rsb" viewBox="0 0 49.44 49.38"><title>icon-15-program-skills__colored--rsb</title><g id="Layer_2" data-name="Layer 2"><g id="ON_WHITE_BG" data-name="ON WHITE BG"><g id="icon-15-program-skills__colored--rsb"><path class="fill-rsb-opacity20" d="M43.05 27.35h6.36a24.82 24.82 0 0 1-22.17 22V43a2.5 2.5 0 0 0-5 0v6.37A24.82 24.82 0 0 1 .12 27.78h6.3a2.5 2.5 0 1 0 0-5H0A24.82 24.82 0 0 1 22.24 0v6.37a2.5 2.5 0 0 0 5 0V0a24.82 24.82 0 0 1 22.2 22.34h-6.39a2.5 2.5 0 0 0 0 5zM24.74 13.52a11.17 11.17 0 1 0 11.17 11.17 11.17 11.17 0 0 0-11.17-11.17z"/><path class="fill-rsb-opacity20" d="M30.75 22.94h-4.1v-4.11h-3.82v4.11h-4.11v3.82h4.11v4.1h3.82v-4.1h4.1v-3.82z"/><path class="fill-rsb-opacity20" d="M43.05 22.35h6.39a24.68 24.68 0 0 0-5.39-13.21l-9.77 9.77A11.15 11.15 0 0 1 19 34.23L9.18 44a24.68 24.68 0 0 0 13.05 5.37V43a2.5 2.5 0 0 1 5 0v6.37a24.82 24.82 0 0 0 22.17-22h-6.35a2.5 2.5 0 0 1 0-5z"/><path class="fill-rsb-opacity20" d="M26.65 30.86v-4.1h4.1v-3.82h-.5l-7.42 7.42v.5h3.82zm-13.03-5.14L2.2 14.3A24.68 24.68 0 0 0 0 22.78h6.42a2.5 2.5 0 1 1 0 5H.12a24.82 24.82 0 0 0 22.12 21.6V43a2.5 2.5 0 0 1 5 0v6.37a24.63 24.63 0 0 0 7.88-2.16L23.7 35.81a11.16 11.16 0 0 1-10.08-10.09z"/></g></g></g></symbol><symbol id="icon-15-program-skills__white--rsb" viewBox="0 0 49.44 49.38"><title>icon-15-program-skills__white--rsb</title><g id="Layer_2" data-name="Layer 2"><g id="ON_MEDIUM_BG" data-name="ON MEDIUM BG"><g id="icon-15-program-skills__white--rsb"><path class="fill-white-opacity20" d="M43.05 27.35h6.36a24.82 24.82 0 0 1-22.17 22V43a2.5 2.5 0 0 0-5 0v6.37A24.82 24.82 0 0 1 .12 27.78h6.3a2.5 2.5 0 1 0 0-5H0A24.82 24.82 0 0 1 22.24 0v6.37a2.5 2.5 0 0 0 5 0V0a24.82 24.82 0 0 1 22.2 22.34h-6.39a2.5 2.5 0 0 0 0 5zM24.74 13.52a11.17 11.17 0 1 0 11.17 11.17 11.17 11.17 0 0 0-11.17-11.17z"/><path class="fill-white-opacity20" d="M30.75 22.94h-4.1v-4.11h-3.82v4.11h-4.11v3.82h4.11v4.1h3.82v-4.1h4.1v-3.82z"/><path class="fill-white-opacity20" d="M43.05 22.35h6.39a24.68 24.68 0 0 0-5.39-13.21l-9.77 9.77A11.15 11.15 0 0 1 19 34.23L9.18 44a24.68 24.68 0 0 0 13.05 5.37V43a2.5 2.5 0 0 1 5 0v6.37a24.82 24.82 0 0 0 22.17-22h-6.35a2.5 2.5 0 0 1 0-5z"/><path class="fill-white-opacity20" d="M26.65 30.86v-4.1h4.1v-3.82h-.5l-7.42 7.42v.5h3.82zm-13.03-5.14L2.2 14.3A24.68 24.68 0 0 0 0 22.78h6.42a2.5 2.5 0 1 1 0 5H.12a24.82 24.82 0 0 0 22.12 21.6V43a2.5 2.5 0 0 1 5 0v6.37a24.63 24.63 0 0 0 7.88-2.16L23.7 35.81a11.16 11.16 0 0 1-10.08-10.09z"/></g></g></g></symbol><symbol id="icon-16-building-career__colored--rsb" viewBox="0 0 44.88 49.82"><title>icon-16-building-career__colored--rsb</title><g id="Layer_2" data-name="Layer 2"><g id="ON_WHITE_BG" data-name="ON WHITE BG"><g id="icon-16-building-career__colored--rsb"><path class="fill-rsb-opacity40" d="M13.41 41.14v-12.8H0v21.48h4.73l8.68-8.68z"/><path class="fill-rsb-opacity70" d="M13.41 49.82v-8.68l-8.68 8.68h8.68z"/><path class="fill-rsb-opacity20" d="M29.01 25.54V13.1H15.6v4.62l10.61 10.62 2.8-2.8z"/><path class="fill-rsb-opacity40" d="M29.01 31.13v-5.59l-2.8 2.8 2.8 2.79zM15.6 17.72v21.23l10.61-10.61L15.6 17.72z"/><path class="fill-rsb-opacity70" d="M29.01 31.13l-2.8-2.79L15.6 38.95v10.87h13.41V31.13z"/><path class="fill-rsb-opacity20" d="M44.88 0H31.47v23.08L44.88 9.67V0z"/><path class="fill-rsb-opacity40" d="M44.88 9.67L31.47 23.08v10.51L44.88 47V9.67z"/><path class="fill-rsb-opacity70" d="M31.47 33.59v16.23h13.41V47L31.47 33.59z"/><path class="fill-rsb" d="M0 34.87h35.29v9.86H0z"/><path class="fill-rsb" d="M31.36 47.61L44 40.25s2-1.18 0-2.37l-12.64-7.36s-2-1.18-2 .49v16.11s-.03 1.67 2 .49z"/></g></g></g></symbol><symbol id="icon-16-building-career__white--rsb" viewBox="0 0 44.88 49.82"><title>icon-16-building-career__white--rsb</title><g id="Layer_2" data-name="Layer 2"><g id="ON_MEDIUM_BG" data-name="ON MEDIUM BG"><g id="icon-16-building-career__white--rsb"><path class="fill-white-opacity40" d="M13.41 41.14v-12.8H0v21.48h4.73l8.68-8.68z"/><path class="fill-white-opacity70" d="M13.41 49.82v-8.68l-8.68 8.68h8.68z"/><path class="fill-white-opacity20" d="M29.01 25.54V13.1H15.6v4.62l10.61 10.62 2.8-2.8z"/><path class="fill-white-opacity40" d="M29.01 31.13v-5.59l-2.8 2.8 2.8 2.79zM15.6 17.72v21.23l10.61-10.61L15.6 17.72z"/><path class="fill-white-opacity70" d="M29.01 31.13l-2.8-2.79L15.6 38.95v10.87h13.41V31.13z"/><path class="fill-white-opacity20" d="M44.88 0H31.47v23.08L44.88 9.67V0z"/><path class="fill-white-opacity40" d="M44.88 9.67L31.47 23.08v10.51L44.88 47V9.67z"/><path class="fill-white-opacity70" d="M31.47 33.59v16.23h13.41V47L31.47 33.59z"/><path class="fill-white" d="M0 34.87h35.29v9.86H0z"/><path class="fill-white" d="M31.36 47.61L44 40.25s2-1.18 0-2.37l-12.64-7.36s-2-1.18-2 .49v16.11s-.03 1.67 2 .49z"/></g></g></g></symbol><symbol id="icon-17-pro-skillset__colored--rsb" viewBox="0 0 58.77 40.21"><title>icon-17-pro-skillset__colored-rsb</title><g id="Layer_2" data-name="Layer 2"><g id="ON_WHITE_BG" data-name="ON WHITE BG"><g id="icon-17-pro-skillset__colored-rsb"><path class="fill-rsb-opacity20" d="M31.45 23.33c-1.38-.21-3.61-1.2-3.61-3.1V9.28h-13l15.32 15.34z"/><path class="fill-rsb-opacity20" d="M31.45 23.33c-1.38-.21-3.61-1.2-3.61-3.1V9.28h-13l15.32 15.34z"/><path class="fill-rsb-opacity40" d="M30.16 24.62l.13.13 1.39-1.39h-.23z"/><path class="fill-rsb-opacity20" d="M30.16 24.62l.13.13 1.39-1.39h-.23z"/><path class="fill-rsb-opacity40" d="M31.68 26.14h.28a3.17 3.17 0 0 1 2.21 1c.66.68.9 1.09 1.82 1.09 1.09 0 2.67-1.24 2.67-3.48s-1.58-3.48-2.66-3.48c-.92 0-1.16.4-1.82 1.09a3.18 3.18 0 0 1-2.21 1h-.28l-1.39 1.39z"/><path class="fill-rsb-opacity40" d="M31.68 26.14h.28a3.17 3.17 0 0 1 2.21 1c.66.68.9 1.09 1.82 1.09 1.09 0 2.67-1.24 2.67-3.48s-1.58-3.48-2.66-3.48c-.92 0-1.16.4-1.82 1.09a3.18 3.18 0 0 1-2.21 1h-.28l-1.39 1.39z"/><path class="fill-rsb-opacity20" d="M30.16 24.62L14.82 9.28h-.26l15.47 15.47.13-.13z"/><path class="fill-rsb-opacity40" d="M30.16 24.62L14.82 9.28h-.26l15.47 15.47.13-.13z"/><path class="fill-rsb-opacity40" transform="rotate(-44.99 30.148 24.748)" d="M30.07 24.65h.18v.18h-.18z"/><path class="fill-rsb-opacity40" transform="rotate(-44.99 30.148 24.748)" d="M30.07 24.65h.18v.18h-.18z"/><path class="fill-rsb-opacity40" d="M14.56 9.28H0v10.94c0 2 1.55 2.57 2.8 1.31a3.26 3.26 0 0 1 2.65-1.43c1.68 0 3.83 1.71 3.83 4.64s-2.15 4.64-3.83 4.64A3.26 3.26 0 0 1 2.8 28C1.55 26.7 0 27.23 0 29.27v10.94h14.56L30 24.75z"/><path class="fill-rsb-opacity40" d="M14.56 9.28H0v10.94c0 2 1.55 2.57 2.8 1.31a3.26 3.26 0 0 1 2.65-1.43c1.68 0 3.83 1.71 3.83 4.64s-2.15 4.64-3.83 4.64A3.26 3.26 0 0 1 2.8 28C1.55 26.7 0 27.23 0 29.27v10.94h14.56L30 24.75z"/><path class="fill-rsb-opacity70" d="M30.03 24.75L14.56 40.21h.26l15.34-15.33-.13-.13z"/><path class="fill-rsb-opacity40" d="M30.03 24.75L14.56 40.21h.26l15.34-15.33-.13-.13zm.13.13l1.29 1.29h.23l-1.39-1.39z"/><path class="fill-rsb-opacity70" d="M30.16 24.88l1.29 1.29h.23l-1.39-1.39zM14.82 40.21h13V29.27c0-1.9 2.23-2.89 3.61-3.1l-1.29-1.29z"/><path class="fill-rsb-opacity70" d="M14.82 40.21h13V29.27c0-1.9 2.23-2.89 3.61-3.1l-1.29-1.29z"/><path class="fill-empty" d="M55.68 37.12V12.37h-7.85a3.39 3.39 0 0 1-3.31-1.86c0-.05 0-.11-.05-.16a3.3 3.3 0 0 1 1-3.39l.31-.29c.49-.45.67-.62.67-1.25a2.87 2.87 0 0 0-3.09-2.29 2.87 2.87 0 0 0-3.09 2.29c0 .63.18.8.67 1.26l.3.29a3.27 3.27 0 0 1 .93 3.55 3.38 3.38 0 0 1-3.32 1.9h-5.6v4.16a5.51 5.51 0 0 1 2.75-.73 6.46 6.46 0 0 1 2.4.53l.19.07a9 9 0 0 1 0 16.59l-.19.07a6.46 6.46 0 0 1-2.4.53 5.5 5.5 0 0 1-2.75-.64v4.16h22.43z"/><path class="fill-rsb-opacity20" d="M36 15.85a5.51 5.51 0 0 0-2.74.68v-4.16h5.53a3.38 3.38 0 0 0 3.32-1.9 3.27 3.27 0 0 0-.93-3.55l-.3-.29c-.48-.46-.67-.62-.67-1.26a2.87 2.87 0 0 1 3.09-2.29 2.87 2.87 0 0 1 3.1 2.3c0 .63-.18.8-.67 1.25l-.31.29a3.3 3.3 0 0 0-1 3.39l5-5C49.43 2.72 47 0 43.31 0s-6.19 2.78-6.19 5.38a4.44 4.44 0 0 0 1.64 3.51l.23.22.12.13a1.83 1.83 0 0 1-.33 0h-7.07a1.55 1.55 0 0 0-1.55 1.55v7.85A2.27 2.27 0 0 0 31.33 21c1.17.47 2-.44 2.56-1a2.54 2.54 0 0 1 1.93-1l2.58-2.58a6.46 6.46 0 0 0-2.4-.57z"/><path class="fill-rsb-opacity20" d="M36 15.85a5.51 5.51 0 0 0-2.74.68v-4.16h5.53a3.38 3.38 0 0 0 3.32-1.9 3.27 3.27 0 0 0-.93-3.55l-.3-.29c-.48-.46-.67-.62-.67-1.26a2.87 2.87 0 0 1 3.09-2.29 2.87 2.87 0 0 1 3.1 2.3c0 .63-.18.8-.67 1.25l-.31.29a3.3 3.3 0 0 0-1 3.39l5-5C49.43 2.72 47 0 43.31 0s-6.19 2.78-6.19 5.38a4.44 4.44 0 0 0 1.64 3.51l.23.22.12.13a1.83 1.83 0 0 1-.33 0h-7.07a1.55 1.55 0 0 0-1.55 1.55v7.85A2.27 2.27 0 0 0 31.33 21c1.17.47 2-.44 2.56-1a2.54 2.54 0 0 1 1.93-1l2.58-2.58a6.46 6.46 0 0 0-2.4-.57z"/><path class="fill-rsb-opacity40" d="M38.4 16.38L35.82 19h.26l2.5-2.5z"/><path class="fill-rsb-opacity20" d="M38.4 16.38L35.82 19h.26l2.5-2.5z"/><path class="fill-rsb-opacity40" d="M44.51 10.48l5-5v-.26l-5 5c-.04.15-.03.21 0 .26z"/><path class="fill-rsb-opacity20" d="M44.51 10.48l5-5v-.26l-5 5c-.04.15-.03.21 0 .26z"/><path class="fill-rsb-opacity40" d="M47.83 12.37h7.85v24.75h-13l3.09 3.09h11.46a1.55 1.55 0 0 0 1.55-1.55V10.83a1.55 1.55 0 0 0-1.55-1.55h-9.4a1.79 1.79 0 0 1-.34 0l.12-.14.23-.22a4.46 4.46 0 0 0 1.63-3.34l-5 5a3.39 3.39 0 0 0 3.36 1.79z"/><path class="fill-rsb-opacity40" d="M47.83 12.37h7.85v24.75h-13l3.09 3.09h11.46a1.55 1.55 0 0 0 1.55-1.55V10.83a1.55 1.55 0 0 0-1.55-1.55h-9.4a1.79 1.79 0 0 1-.34 0l.12-.14.23-.22a4.46 4.46 0 0 0 1.63-3.34l-5 5a3.39 3.39 0 0 0 3.36 1.79z"/><path class="fill-rsb-opacity40" d="M44.08 24.75a9.16 9.16 0 0 0-5.5-8.29L36.08 19a5.87 5.87 0 0 1 0 11.59l2.5 2.5a9.16 9.16 0 0 0 5.5-8.34z"/><path class="fill-rsb-opacity40" d="M44.08 24.75a9.16 9.16 0 0 0-5.5-8.29L36.08 19a5.87 5.87 0 0 1 0 11.59l2.5 2.5a9.16 9.16 0 0 0 5.5-8.34z"/><path class="fill-rsb-opacity40" d="M38.58 33l-2.5-2.5h-.26l2.58 2.58z"/><path class="fill-rsb-opacity70" d="M38.58 33l-2.5-2.5h-.26l2.58 2.58z"/><path class="fill-rsb-opacity40" d="M42.4 37.12l3.1 3.09h.26l-3.1-3.09h-.26z"/><path class="fill-rsb-opacity70" d="M42.4 37.12l3.1 3.09h.26l-3.1-3.09h-.26zm-10.69 3.09H45.5l-3.1-3.09h-9.15V33a5.5 5.5 0 0 0 2.74.68 6.46 6.46 0 0 0 2.4-.53l-2.58-2.58a2.58 2.58 0 0 1-1.94-1c-.52-.54-1.39-1.45-2.55-1a2.27 2.27 0 0 0-1.17 2.3v7.85a1.55 1.55 0 0 0 1.56 1.49z"/><path class="fill-rsb-opacity70" d="M31.71 40.21H45.5l-3.1-3.09h-9.15V33a5.5 5.5 0 0 0 2.74.68 6.46 6.46 0 0 0 2.4-.53l-2.58-2.58a2.58 2.58 0 0 1-1.94-1c-.52-.54-1.39-1.45-2.55-1a2.27 2.27 0 0 0-1.17 2.3v7.85a1.55 1.55 0 0 0 1.56 1.49z"/></g></g></g></symbol><symbol id="icon-17-pro-skillset__white--rsb" viewBox="0 0 58.77 40.21"><title>icon-17-pro-skillset__white--rsb</title><g id="Layer_2" data-name="Layer 2"><g id="ON_MEDIUM_BG" data-name="ON MEDIUM BG"><g id="icon-17-pro-skillset__white--rsb"><path class="fill-white-opacity20" d="M31.45 23.33c-1.38-.21-3.61-1.2-3.61-3.1V9.28h-13l15.32 15.34z"/><path class="fill-white-opacity20" d="M31.45 23.33c-1.38-.21-3.61-1.2-3.61-3.1V9.28h-13l15.32 15.34z"/><path class="fill-white-opacity40" d="M30.16 24.62l.13.13 1.39-1.39h-.23z"/><path class="fill-white-opacity20" d="M30.16 24.62l.13.13 1.39-1.39h-.23z"/><path class="fill-white-opacity40" d="M31.68 26.14h.28a3.17 3.17 0 0 1 2.21 1c.66.68.9 1.09 1.82 1.09 1.09 0 2.67-1.24 2.67-3.48s-1.58-3.48-2.66-3.48c-.92 0-1.16.4-1.82 1.09a3.18 3.18 0 0 1-2.21 1h-.28l-1.39 1.39z"/><path class="fill-white-opacity40" d="M31.68 26.14h.28a3.17 3.17 0 0 1 2.21 1c.66.68.9 1.09 1.82 1.09 1.09 0 2.67-1.24 2.67-3.48s-1.58-3.48-2.66-3.48c-.92 0-1.16.4-1.82 1.09a3.18 3.18 0 0 1-2.21 1h-.28l-1.39 1.39z"/><path class="fill-white-opacity20" d="M30.16 24.62L14.82 9.28h-.26l15.47 15.47.13-.13z"/><path class="fill-white-opacity40" d="M30.16 24.62L14.82 9.28h-.26l15.47 15.47.13-.13z"/><path class="fill-white-opacity40" transform="rotate(-45 30.152 24.75)" d="M30.07 24.65h.18v.18h-.18z"/><path class="fill-white-opacity40" transform="rotate(-45 30.152 24.75)" d="M30.07 24.65h.18v.18h-.18z"/><path class="fill-white-opacity40" d="M14.56 9.28H0v10.94c0 2 1.55 2.57 2.8 1.31a3.26 3.26 0 0 1 2.65-1.43c1.68 0 3.83 1.71 3.83 4.64s-2.15 4.64-3.83 4.64A3.26 3.26 0 0 1 2.8 28C1.55 26.7 0 27.23 0 29.27v10.94h14.56L30 24.75z"/><path class="fill-white-opacity40" d="M14.56 9.28H0v10.94c0 2 1.55 2.57 2.8 1.31a3.26 3.26 0 0 1 2.65-1.43c1.68 0 3.83 1.71 3.83 4.64s-2.15 4.64-3.83 4.64A3.26 3.26 0 0 1 2.8 28C1.55 26.7 0 27.23 0 29.27v10.94h14.56L30 24.75z"/><path class="fill-white-opacity70" d="M30.03 24.75L14.56 40.21h.26l15.34-15.33-.13-.13z"/><path class="fill-white-opacity40" d="M30.03 24.75L14.56 40.21h.26l15.34-15.33-.13-.13zm.13.13l1.29 1.29h.23l-1.39-1.39z"/><path class="fill-white-opacity70" d="M30.16 24.88l1.29 1.29h.23l-1.39-1.39zM14.82 40.21h13V29.27c0-1.9 2.23-2.89 3.61-3.1l-1.29-1.29z"/><path class="fill-white-opacity70" d="M14.82 40.21h13V29.27c0-1.9 2.23-2.89 3.61-3.1l-1.29-1.29z"/><path class="fill-empty" d="M55.68 37.12V12.37h-7.85a3.39 3.39 0 0 1-3.31-1.86c0-.05 0-.11-.05-.16a3.3 3.3 0 0 1 1-3.39l.31-.29c.49-.45.67-.62.67-1.25a2.87 2.87 0 0 0-3.09-2.29 2.87 2.87 0 0 0-3.09 2.29c0 .63.18.8.67 1.26l.3.29a3.27 3.27 0 0 1 .93 3.55 3.38 3.38 0 0 1-3.32 1.9h-5.6v4.16a5.51 5.51 0 0 1 2.75-.73 6.46 6.46 0 0 1 2.4.53l.19.07a9 9 0 0 1 0 16.59l-.19.07a6.46 6.46 0 0 1-2.4.53 5.5 5.5 0 0 1-2.75-.64v4.16h22.43z"/><path class="fill-white-opacity20" d="M36 15.85a5.51 5.51 0 0 0-2.74.68v-4.16h5.53a3.38 3.38 0 0 0 3.32-1.9 3.27 3.27 0 0 0-.93-3.55l-.3-.29c-.48-.46-.67-.62-.67-1.26a2.87 2.87 0 0 1 3.09-2.29 2.87 2.87 0 0 1 3.1 2.3c0 .63-.18.8-.67 1.25l-.31.29a3.3 3.3 0 0 0-1 3.39l5-5C49.43 2.72 47 0 43.31 0s-6.19 2.78-6.19 5.38a4.44 4.44 0 0 0 1.64 3.51l.23.22.12.13a1.83 1.83 0 0 1-.33 0h-7.07a1.55 1.55 0 0 0-1.55 1.55v7.85A2.27 2.27 0 0 0 31.33 21c1.17.47 2-.44 2.56-1a2.54 2.54 0 0 1 1.93-1l2.58-2.58a6.46 6.46 0 0 0-2.4-.57z"/><path class="fill-white-opacity20" d="M36 15.85a5.51 5.51 0 0 0-2.74.68v-4.16h5.53a3.38 3.38 0 0 0 3.32-1.9 3.27 3.27 0 0 0-.93-3.55l-.3-.29c-.48-.46-.67-.62-.67-1.26a2.87 2.87 0 0 1 3.09-2.29 2.87 2.87 0 0 1 3.1 2.3c0 .63-.18.8-.67 1.25l-.31.29a3.3 3.3 0 0 0-1 3.39l5-5C49.43 2.72 47 0 43.31 0s-6.19 2.78-6.19 5.38a4.44 4.44 0 0 0 1.64 3.51l.23.22.12.13a1.83 1.83 0 0 1-.33 0h-7.07a1.55 1.55 0 0 0-1.55 1.55v7.85A2.27 2.27 0 0 0 31.33 21c1.17.47 2-.44 2.56-1a2.54 2.54 0 0 1 1.93-1l2.58-2.58a6.46 6.46 0 0 0-2.4-.57z"/><path class="fill-white-opacity40" d="M38.4 16.38L35.82 19h.26l2.5-2.5z"/><path class="fill-white-opacity20" d="M38.4 16.38L35.82 19h.26l2.5-2.5z"/><path class="fill-white-opacity40" d="M44.51 10.48l5-5v-.26l-5 5c-.04.15-.03.21 0 .26z"/><path class="fill-white-opacity20" d="M44.51 10.48l5-5v-.26l-5 5c-.04.15-.03.21 0 .26z"/><path class="fill-white-opacity40" d="M47.83 12.37h7.85v24.75h-13l3.09 3.09h11.46a1.55 1.55 0 0 0 1.55-1.55V10.83a1.55 1.55 0 0 0-1.55-1.55h-9.4a1.79 1.79 0 0 1-.34 0l.12-.14.23-.22a4.46 4.46 0 0 0 1.63-3.34l-5 5a3.39 3.39 0 0 0 3.36 1.79z"/><path class="fill-white-opacity40" d="M47.83 12.37h7.85v24.75h-13l3.09 3.09h11.46a1.55 1.55 0 0 0 1.55-1.55V10.83a1.55 1.55 0 0 0-1.55-1.55h-9.4a1.79 1.79 0 0 1-.34 0l.12-.14.23-.22a4.46 4.46 0 0 0 1.63-3.34l-5 5a3.39 3.39 0 0 0 3.36 1.79z"/><path class="fill-white-opacity40" d="M44.08 24.75a9.16 9.16 0 0 0-5.5-8.29L36.08 19a5.87 5.87 0 0 1 0 11.59l2.5 2.5a9.16 9.16 0 0 0 5.5-8.34z"/><path class="fill-white-opacity40" d="M44.08 24.75a9.16 9.16 0 0 0-5.5-8.29L36.08 19a5.87 5.87 0 0 1 0 11.59l2.5 2.5a9.16 9.16 0 0 0 5.5-8.34zM42.4 37.12l3.1 3.09h.26l-3.1-3.09h-.26z"/><path class="fill-white-opacity70" d="M42.4 37.12l3.1 3.09h.26l-3.1-3.09h-.26z"/><path class="fill-white-opacity40" d="M38.58 33l-2.5-2.5h-.26l2.58 2.58z"/><path class="fill-white-opacity70" d="M38.58 33l-2.5-2.5h-.26l2.58 2.58zm-6.87 7.21H45.5l-3.1-3.09h-9.15V33a5.5 5.5 0 0 0 2.74.68 6.46 6.46 0 0 0 2.4-.53l-2.58-2.58a2.58 2.58 0 0 1-1.94-1c-.52-.54-1.39-1.45-2.55-1a2.27 2.27 0 0 0-1.17 2.3v7.85a1.55 1.55 0 0 0 1.56 1.49z"/><path class="fill-white-opacity70" d="M31.71 40.21H45.5l-3.1-3.09h-9.15V33a5.5 5.5 0 0 0 2.74.68 6.46 6.46 0 0 0 2.4-.53l-2.58-2.58a2.58 2.58 0 0 1-1.94-1c-.52-.54-1.39-1.45-2.55-1a2.27 2.27 0 0 0-1.17 2.3v7.85a1.55 1.55 0 0 0 1.56 1.49z"/></g></g></g></symbol><symbol id="icon-18-community__colored--rsb" viewBox="0 0 54.1 42.06"><title>icon-18-community__colored--rsb</title><g id="Layer_2" data-name="Layer 2"><g id="ON_WHITE_BG" data-name="ON WHITE BG"><g id="icon-18-community__colored--rsb"><circle class="fill-rsb-opacity40" cx="48.71" cy="13.27" r="4.35" transform="rotate(-66.95 48.715 13.27)"/><circle class="fill-rsb-opacity40" cx="5.39" cy="13.27" r="4.35" transform="rotate(-23.05 5.388 13.282)"/><path class="fill-rsb-opacity40" d="M53.93 22c.48-1.12-.08-2.35-1.09-3.62a6.53 6.53 0 0 1-10.66-4.55 4.86 4.86 0 0 0-2.8 1 94.15 94.15 0 0 1-2.66 15.88l6.93 6.93A65.08 65.08 0 0 0 53.93 22z"/><path class="fill-rsb-opacity70" d="M36.72 30.67a49.79 49.79 0 0 1-2 6.21c.13 2.53.68 4.4 1.9 4.92 1.68.71 4.32-1.2 7.07-4.2z"/><path class="fill-rsb-opacity40" d="M11.92 13.82a6.53 6.53 0 0 1-10.66 4.54C.25 19.63-.3 20.86.17 22a65.06 65.06 0 0 0 10.31 15.62l7-7a94.17 94.17 0 0 1-2.66-15.85 4.79 4.79 0 0 0-2.9-.95z"/><path class="fill-rsb-opacity70" d="M17.53 41.8c1.23-.53 1.79-2.43 1.91-5a50.1 50.1 0 0 1-2-6.11l-7 7c2.78 2.92 5.41 4.82 7.09 4.11z"/><path class="fill-rsb-opacity20" d="M34 8.83a7.77 7.77 0 0 1-13.79 0 5.41 5.41 0 0 0-2.71 2.6L27.07 21l9.61-9.61A5.4 5.4 0 0 0 34 8.83z"/><path class="fill-rsb-opacity40" d="M34.54 28.49a75.4 75.4 0 0 0 2.3-16.21 2.53 2.53 0 0 0-.16-.86L27.07 21zM17.47 11.42a2.55 2.55 0 0 0-.16.86 75.4 75.4 0 0 0 2.3 16.21L27.07 21z"/><path class="fill-rsb-opacity70" d="M19.61 28.49c1.79 7.21 4.46 13.57 7.46 13.57s5.67-6.35 7.46-13.57L27.07 21z"/><circle class="fill-rsb-opacity20" cx="27.07" cy="5.18" r="5.18"/></g></g></g></symbol><symbol id="icon-18-community__white--rsb" viewBox="0 0 54.1 42.06"><title>icon-18-community__white--rsb</title><g id="Layer_2" data-name="Layer 2"><g id="ON_MEDIUM_BG" data-name="ON MEDIUM BG"><g id="icon-18-community__white--rsb"><circle class="fill-white-opacity40" cx="48.71" cy="13.27" r="4.35" transform="rotate(-66.95 48.715 13.27)"/><circle class="fill-white-opacity40" cx="5.39" cy="13.27" r="4.35" transform="rotate(-23.05 5.388 13.282)"/><path class="fill-white-opacity40" d="M53.93 22c.48-1.12-.08-2.35-1.09-3.62a6.53 6.53 0 0 1-10.66-4.55 4.86 4.86 0 0 0-2.8 1 94.16 94.16 0 0 1-2.66 15.88l6.93 6.93A65.08 65.08 0 0 0 53.93 22z"/><path class="fill-white-opacity70" d="M36.72 30.67a49.81 49.81 0 0 1-2 6.21c.13 2.53.68 4.4 1.9 4.92 1.68.71 4.32-1.2 7.07-4.2z"/><path class="fill-white-opacity40" d="M11.92 13.82a6.53 6.53 0 0 1-10.66 4.54C.25 19.63-.3 20.86.17 22a65.06 65.06 0 0 0 10.31 15.62l7-7a94.15 94.15 0 0 1-2.66-15.85 4.79 4.79 0 0 0-2.9-.95z"/><path class="fill-white-opacity70" d="M17.53 41.8c1.23-.53 1.79-2.43 1.91-5a50.1 50.1 0 0 1-2-6.11l-7 7c2.78 2.92 5.41 4.82 7.09 4.11z"/><path class="fill-white-opacity20" d="M34 8.83a7.77 7.77 0 0 1-13.79 0 5.4 5.4 0 0 0-2.71 2.6L27.07 21l9.61-9.61A5.4 5.4 0 0 0 34 8.83z"/><path class="fill-white-opacity40" d="M34.54 28.49a75.4 75.4 0 0 0 2.3-16.21 2.53 2.53 0 0 0-.16-.86L27.07 21zM17.47 11.42a2.55 2.55 0 0 0-.16.86 75.4 75.4 0 0 0 2.3 16.21L27.07 21z"/><path class="fill-white-opacity70" d="M19.61 28.49c1.79 7.21 4.46 13.57 7.46 13.57s5.67-6.35 7.46-13.57L27.07 21z"/><circle class="fill-white-opacity20" cx="27.07" cy="5.18" r="5.18"/></g></g></g></symbol><symbol id="icon-19-cost-savings__colored--rsb" viewBox="0 0 60 49.99"><title>icon-19-cost-savings__colored--rsb</title><g id="Layer_2" data-name="Layer 2"><g id="ON_WHITE_BG" data-name="ON WHITE BG"><g id="icon-19-cost-savings__colored--rsb"><path class="fill-rsb-opacity20" d="M46.86 8.14C42.92 5.31 37.66 4 32 4c-1.52 0-3 .06-4.31.17-1.92-2.51-6.23-4.17-9-4.17S16 1.1 16 2.84v4.62a17.4 17.4 0 0 0-2.08 1.46L30 25z"/><path class="fill-rsb-opacity40" d="M55.24 24.6a5.76 5.76 0 0 0 2.28 1.2c2.89.94 2.87-.81 1.77-1.41a8.8 8.8 0 0 1-1.69-1.15 5.34 5.34 0 0 0 2.4-3.89 3.34 3.34 0 0 0-2.81-3.21 4.53 4.53 0 0 0-1.13-.14 3.49 3.49 0 0 0-2.87 1.38 16.17 16.17 0 0 0-6.33-9.24L30 25l17.87 17.86c0-2.33.31-4.79 1.17-6l.27-.3.1-.1A19 19 0 0 0 53.95 25c.44-.1.9-.23 1.29-.4zM13.92 8.92a17.31 17.31 0 0 0-4.1 4.88 10.09 10.09 0 0 1-3.41 3.92C3.31 19.43 0 18.4 0 21.54v8.11c0 2.64 1.59 1.9 4.69 3.33 2.11 1 3.57 5.1 8.84 7.17l.71.27.21.1L30 25z"/><path class="fill-rsb-opacity70" d="M14.46 40.53c2.21 1.08 1.68 4.55 1.56 6.9A2.44 2.44 0 0 0 18.47 50h5.36a2.46 2.46 0 0 0 2.29-1.63c.65-1.81 1.89-4.5 3.45-4.5.83.08 1.59.13 2.2.13a27.38 27.38 0 0 0 3.61-.26c2.09-.36 2.66 3.08 3.32 4.7A2.44 2.44 0 0 0 41 50h4.56A2.43 2.43 0 0 0 48 47.43c0-1-.15-2.74-.11-4.57L30 25z"/></g></g></g></symbol><symbol id="icon-19-cost-savings__white--rsb" viewBox="0 0 60 49.99"><title>icon-19-cost-savings__white--rsb</title><g id="Layer_2" data-name="Layer 2"><g id="ON_MEDIUM_BG" data-name="ON MEDIUM BG"><g id="icon-19-cost-savings__white--rsb"><path class="fill-white-opacity20" d="M46.86 8.14C42.92 5.31 37.66 4 32 4c-1.52 0-3 .06-4.31.17-1.92-2.51-6.23-4.17-9-4.17S16 1.1 16 2.84v4.62a17.4 17.4 0 0 0-2.08 1.46L30 25z"/><path class="fill-white-opacity40" d="M55.24 24.6a5.76 5.76 0 0 0 2.28 1.2c2.89.94 2.87-.81 1.77-1.41a8.81 8.81 0 0 1-1.69-1.15 5.34 5.34 0 0 0 2.4-3.89 3.34 3.34 0 0 0-2.81-3.21 4.52 4.52 0 0 0-1.13-.14 3.49 3.49 0 0 0-2.87 1.38 16.17 16.17 0 0 0-6.33-9.24L30 25l17.87 17.86c0-2.33.31-4.79 1.17-6l.27-.3.1-.1A19 19 0 0 0 53.95 25c.44-.1.9-.23 1.29-.4zM13.92 8.92a17.31 17.31 0 0 0-4.1 4.88 10.09 10.09 0 0 1-3.41 3.92C3.31 19.43 0 18.4 0 21.54v8.11c0 2.64 1.59 1.9 4.69 3.33 2.11 1 3.57 5.1 8.84 7.17l.71.27.21.1L30 25z"/><path class="fill-white-opacity70" d="M14.46 40.53c2.21 1.08 1.68 4.55 1.56 6.9A2.44 2.44 0 0 0 18.47 50h5.36a2.46 2.46 0 0 0 2.29-1.63c.65-1.81 1.89-4.5 3.45-4.5.83.08 1.59.13 2.2.13a27.38 27.38 0 0 0 3.61-.26c2.09-.36 2.66 3.08 3.32 4.7A2.44 2.44 0 0 0 41 50h4.56A2.43 2.43 0 0 0 48 47.43c0-1-.15-2.74-.11-4.57L30 25z"/></g></g></g></symbol><symbol id="icon-20-credit-transfer__colored--rsb" viewBox="0 0 74.55 51.26"><title>icon-20-credit-transfer__colored--rsb</title><g id="Layer_2" data-name="Layer 2"><g id="ON_WHITE_BG" data-name="ON WHITE BG"><g id="icon-20-credit-transfer__colored--rsb"><path class="fill-rsb-opacity40" d="M62.14 30.69V20.24h-23.4v10.12l.33.33h23.07z"/><path class="fill-rsb-opacity70" d="M38.74 30.36v.33h.33l-.33-.33z"/><path class="fill-rsb-opacity60" d="M63.76 36.08L73.83 26a2.25 2.25 0 0 0 0-3.24l-10.07-10.1s-1.62-1.62-1.62.67v22.08s0 2.29 1.62.67z"/><path class="fill-rsb-opacity20" d="M21.13 11.78a13.92 13.92 0 0 1 5.67-1.13 14.37 14.37 0 0 1 5.5 1.1 9.87 9.87 0 0 1 4.33 3.37l8-8a19.41 19.41 0 0 0-8.07-5.33 30 30 0 0 0-20.56 0 26 26 0 0 0-4.13 2l8.43 8.43c.28-.17.55-.31.83-.44z"/><path class="fill-rsb-opacity40" d="M16.66 36.31a14.09 14.09 0 0 1-2.85-4.71 17.09 17.09 0 0 1-1-6 16.61 16.61 0 0 1 1-5.94 14.26 14.26 0 0 1 2.89-4.71 13.19 13.19 0 0 1 3.62-2.72l-8.44-8.47a24.07 24.07 0 0 0-4.25 3.15A23.52 23.52 0 0 0 2 15a26.66 26.66 0 0 0-2 10.56A26.68 26.68 0 0 0 2 36a24.34 24.34 0 0 0 5.5 8.14 23.72 23.72 0 0 0 2.89 2.36l8.38-8.38a12.57 12.57 0 0 1-2.11-1.81z"/><path class="fill-rsb-opacity70" d="M32.71 39.1a12.94 12.94 0 0 1-6.12 1.37 13.86 13.86 0 0 1-5.59-1.1 13.26 13.26 0 0 1-2.26-1.25l-8.36 8.38a25.12 25.12 0 0 0 5.39 2.9 28.49 28.49 0 0 0 10.41 1.86 26 26 0 0 0 10.92-2.17 23.15 23.15 0 0 0 8-5.87l-8.18-7.7a11.85 11.85 0 0 1-4.21 3.58z"/></g></g></g></symbol><symbol id="icon-20-credit-transfer__white--rsb" viewBox="0 0 74.55 51.26"><title>icon-20-credit-transfer__white--rsb</title><g id="Layer_2" data-name="Layer 2"><g id="ON_MEDIUM_BG" data-name="ON MEDIUM BG"><g id="icon-20-credit-transfer__white--rsb"><path class="fill-white-opacity40" d="M62.14 30.69V20.24H38.75v10.12l.33.33h23.06z"/><path class="fill-rsb-opacity70" d="M38.75 30.36v.33h.33l-.33-.33z"/><path class="fill-white-opacity60" d="M63.76 36.08L73.83 26a2.25 2.25 0 0 0 0-3.24l-10.07-10.1s-1.62-1.62-1.62.67v22.08s0 2.29 1.62.67z"/><path class="fill-white-opacity20" d="M21.13 11.78a13.93 13.93 0 0 1 5.67-1.13 14.36 14.36 0 0 1 5.5 1.1 9.87 9.87 0 0 1 4.33 3.37l8-8a19.43 19.43 0 0 0-8.07-5.33 30 30 0 0 0-20.56 0 26 26 0 0 0-4.13 2l8.43 8.43c.28-.17.55-.31.83-.44z"/><path class="fill-white-opacity40" d="M16.66 36.31a14.07 14.07 0 0 1-2.85-4.71 17.09 17.09 0 0 1-1-6 16.61 16.61 0 0 1 1-5.94 14.26 14.26 0 0 1 2.88-4.71 13.22 13.22 0 0 1 3.62-2.72l-8.43-8.47a24.07 24.07 0 0 0-4.25 3.15A23.54 23.54 0 0 0 2 15a26.66 26.66 0 0 0-2 10.56A26.66 26.66 0 0 0 2 36a24.33 24.33 0 0 0 5.5 8.14 23.73 23.73 0 0 0 2.89 2.36l8.38-8.38a12.57 12.57 0 0 1-2.11-1.81z"/><path class="fill-white-opacity70" d="M32.71 39.1a12.94 12.94 0 0 1-6.12 1.37 13.85 13.85 0 0 1-5.59-1.1 13.26 13.26 0 0 1-2.26-1.25l-8.38 8.38a25.12 25.12 0 0 0 5.38 2.9 28.5 28.5 0 0 0 10.41 1.86 26 26 0 0 0 10.93-2.17 23.16 23.16 0 0 0 8-5.87l-8.18-7.7a11.84 11.84 0 0 1-4.19 3.58z"/></g></g></g></symbol><symbol id="icon-21-quotes__colored--rsb" viewBox="0 0 59.26 63.25"><title>icon-21-quotes__colored--rsb</title><g id="Layer_2" data-name="Layer 2"><g id="ON_WHITE_BG" data-name="ON WHITE BG"><g id="icon-21-quotes__colored--rsb"><path class="fill-rsb-opacity10" d="M29.63 0A29.63 29.63 0 0 0 6.91 48.65l-2 14.6 17.42-4.9A29.63 29.63 0 1 0 29.63 0z"/><g id="quotes"><path class="fill-rsb-opacity70" d="M21.5 27.6l.16-.31-2.94-2.94-1.76 2.78v8.33h6.81v-6.05l-1.8-1.81h-.47zM13.6 27.6h-2.28l2.7-5.3-3.07-1.75-4.17 6.58v8.33h6.82V27.6z"/><path class="fill-rsb-opacity50" d="M21.12 20.55l-2.4 3.79v.01l2.94 2.94 2.54-4.99-3.08-1.75zM21.98 27.6h-.01l1.8 1.81V27.6h-1.79z"/><path class="fill-rsb-opacity70" d="M52.48 27.79h-6.81v7.86h2.27l-2.7 5.3 3.08 1.75 4.16-6.58v-8.33zM37.76 35.65l-.09.17 2.95 2.96 1.68-2.66v-8.33h-6.81v5.85l2 2.01h.27z"/><path class="fill-rsb-opacity50" d="M37.67 35.82l-.02.04-2.59 5.09 3.08 1.75 2.46-3.89.02-.03-2.95-2.96zM35.49 33.64v2.01h2l-2-2.01z"/></g></g></g></g></symbol><symbol id="icon-21-quotes__white--rsb" viewBox="0 0 59.26 63.25"><title>icon-21-quotes__white--rsb</title><g id="Layer_2" data-name="Layer 2"><g id="ON_DARK_BG" data-name="ON DARK BG"><g id="icon-21-quotes__white--rsb"><path class="fill-white-opacity10" d="M29.63 0A29.63 29.63 0 0 0 6.91 48.65l-2 14.6 17.42-4.9A29.63 29.63 0 1 0 29.63 0z"/><g id="quotes"><path class="fill-white-opacity70" d="M21.5 27.6l.16-.31-2.94-2.94-1.76 2.78v8.33h6.81v-6.05l-1.8-1.81h-.47zM13.6 27.6h-2.28l2.7-5.3-3.07-1.75-4.17 6.58v8.33h6.82V27.6z"/><path class="fill-white-opacity50" d="M21.12 20.55l-2.4 3.79v.01l2.94 2.94 2.54-4.99-3.08-1.75zM21.98 27.6h-.01l1.8 1.81V27.6h-1.79z"/><path class="fill-white-opacity70" d="M52.48 27.79h-6.81v7.86h2.27l-2.7 5.3 3.08 1.75 4.16-6.58v-8.33zM37.76 35.65l-.09.17 2.95 2.96 1.68-2.66v-8.33h-6.81v5.85l2 2.01h.27z"/><path class="fill-white-opacity50" d="M37.67 35.82l-.02.04-2.59 5.09 3.08 1.75 2.46-3.89.02-.03-2.95-2.96zM35.49 33.64v2.01h2l-2-2.01z"/></g></g></g></g></symbol></svg>